<mxfile host="app.diagrams.net" agent="Mozilla/5.0 (Windows NT 10.0; Win64; x64; rv:131.0) Gecko/20100101 Firefox/131.0" version="24.8.3">
  <diagram name="PÃ¡gina-1" id="twYtwWuQIURrLlToXYuj">
    <mxGraphModel dx="1526" dy="627" grid="1" gridSize="10" guides="1" tooltips="1" connect="1" arrows="1" fold="1" page="1" pageScale="1" pageWidth="827" pageHeight="1169" math="0" shadow="0">
      <root>
        <mxCell id="0" />
        <mxCell id="1" parent="0" />
        <mxCell id="nCB0yEnhGpgdSYTnu6UH-1" value="" style="shape=image;verticalLabelPosition=bottom;labelBackgroundColor=default;verticalAlign=top;aspect=fixed;imageAspect=0;image=data:image/png,iVBORw0KGgoAAAANSUhEUgAAAqcAAAJXCAYAAACud/0dAAAgAElEQVR4Xu3dC9BdVXn/8RUI10ASbgK+YP6Rm7dUohjk0gJKESxoR4hS/UtHoGLHKdYOMiNOBxhb+h8vZdSxFQqxQ2+UgFpMBWKwoBAFYbDiBYGAkbxyNWIghjv/99nMc3zelb3POfu8e53z7LO+Z+adJG/22Xutz9rnnN9Ze+21Zr049Qg8EEAAAQQQQAABBBBwIDCLcOqgFSgCAggggAACCCCAQCFAOOVEQAABBBBAAAEEEHAjQDh10xQUBAEEEEAAAQQQQIBwyjmAAAIIIIAAAggg4EaAcOqmKSgIAggggAACCCCAAOGUcwABBBBAAAEEEEDAjQDh1E1TUBAEEEAAAQQQQAABwinnAAIIIIAAAggggIAbAcKpm6agIAgggAACCCCAAAKEU84BBBBAAAEEEEAAATcChFM3TUFBEEAAAQQQQAABBAinnAMIIIAAAggggAACbgQIp26agoIggAACCCCAAAIIEE45BxBAAAEEEEAAAQTcCBBO3TQFBUEAAQQQQAABBBAgnHIOIIAAAggggAACCLgRIJy6aQoKggACCCCAAAIIIEA45RxAAAEEEEAAAQQQcCNAOHXTFBQEAQQQQAABBBBAgHDKOYAAAggggAACCCDgRoBw6qYpKAgCCCCAAAIIIIAA4ZRzAAEEEEAAAQQQQMCNAOHUTVNQEAQQQAABBBBAAAHCKecAAggggAACCCCAgBsBwqmbpqAgCCCAAAIIIIAAAoRTzgEEEEAAAQQQQAABNwKEUzdNQUEQQAABBBBAAAEECKecAwgggAACCCCAAAJuBAinbpqCgiCAAAIIIIAAAggQTjkHEEAAAQQQQAABBNwIEE7dNAUFQQABBBBAAAEEECCccg4ggAACCCCAAAIIuBEgnLppCgqCAAIIIIAAAgggQDjlHEAAAQQQQAABBBBwI0A4ddMUFAQBBBBAAAEEEECAcMo5gAACCCCAAAIIIOBGgHDqpikoCAIIIIAAAggggADhlHMAAQQQQAABBBBAwI0A4dRNU1AQBBBAAAEEEEAAAcIp5wACCCCAAAIIIICAGwHCqZumoCAIIIAAAggggAAChFPOAQQQQAABBBBAAAE3AoRTN01BQRBAAAEEEEAAAQQIp5wDCCCAAAIIIIAAAm4ECKdumoKCIIAAAggggAACCBBOOQcQQAABBBBAAAEE3AgQTt00BQVBAAEEEEAAAQQQIJxyDiCAAAIIIIAAAgi4ESCcumkKCoIAAggggAACCCBAOOUcQAABBBBAAAEEEHAjQDh10xQUBAEEEEAAAQQQQIBwyjmAAAIIIIAAAggg4EaAcOqmKSgIAggggAACCCCAAOGUcwABBBBAAAEEEEDAjQDh1E1TUBAEEEAAAQQQQAABwinnAAIIIIAAAggggIAbAcKpm6agIAgggAACCCCAAAKEU84BBBBAAAEEEEAAATcChFM3TUFBEEAAAQQQQAABBAinnAMIIIAAAggggAACbgQIp26agoIggAACCCCAAAIIEE45BxBAAAEEEEAAAQTcCBBO3TQFBUEAAQQQQAABBBAgnHIOIIAAAggggAACCLgRIJy6aQoKggACCCCAAAIIIEA45RxAAAEEEEAAAQQQcCNAOHXTFBQEAQQQQAABBBBAgHDKOYAAAggggAACCCDgRoBw6qYpKAgCCCCAAAIIIIAA4ZRzAAEEEEAAAQQQQMCNAOHUTVNQEAQQQAABBBBAAAHCKecAAggggAACCCCAgBsBwqmbpqAgCCCAAAIIIIAAAoRTzgEEEEAAAQQQQAABNwKEUzdNQUEQQAABBBBAAAEECKecAwgggAACCCCAAAJuBAinbpqCgiCAAAIIIIAAAggQTjkHEEAAAQQQQAABBNwIEE7dNAUFQQABBBBAAAEEECCccg4ggAACCCCAAAIIuBEgnLppCgqCAAIIIIAAAgggQDjlHEAAAQQQQAABBBBwI0A4ddMUFAQBBBBAAAEEEECAcMo5gAACCCCAAAIIIOBGgHDqpikoCAIIIIAAAggggADhlHMAAQQQQAABBBBAwI0A4dRNU1AQBBBAAAEEEEAAAcIp5wACCCCAAAIIIICAGwHCqZumoCAIIIAAAggggAAChFPOAQQQQAABBBBAAAE3AoRTN01BQRBAAAEEEEAAAQQIp5wDCCCAAAIIIIAAAm4ECKdumoKCIIAAAggggAACCBBOOQcQQAABBBBAAAEE3AgQTt00BQVBAAEEEEAAAQQQIJxyDiCAAAIIIIAAAgi4ESCcumkKCoIAAggggAACCCBAOOUcQAABBBBAAAEEEHAjQDh10xQUBAEEEEAAAQQQQIBwyjmAAAIIIIAAAggg4EaAcOqmKSgIAggggAACCCCAAOGUcwABBBBAAAEEEEDAjQDh1E1TUBAEEEAAAQQQQAABwinnAAIIIIAAAggggIAbAcKpm6agIAgggAACCCCAAAKEU84BBBBAAAEEEEAAATcChFM3TUFBEEAAAQQQQAABBAinnAMIIIAAAggggAACbgQIp26agoIggAACCCCAAAIIEE45BxBAAAEEEEAAAQTcCBBO3TQFBUEAAQQQQAABBBAgnHIOIIAAAggggAACCLgRIJy6aQoKggACCCCAAAIIIEA45RxAAAEEEEAAAQQQcCNAOHXTFBQEAQQQQAABBBBAgHDKOYAAAggggAACCCDgRoBw6qYpKAgCCCCAAAIIIIAA4ZRzAAEEEEAAAQQQQMCNAOHUTVNQEAQQQAABBBBAAAHCKecAAggggAACCCCAgBsBwqmbpqAgCCCAAAIIIIAAAoRTzgEEEEAAAQQQQAABNwKEUzdNQUEQQAABBBBAAAEECKecAwgggAACCCCAAAJuBAinbpqCgiCAAAIIIIAAAggQTjkHEEAAAQQQQAABBNwIEE7dNAUFQQABBBBAAAEEECCccg4ggAACCCCAAAIIuBEgnLppCgqCAAIIIIAAAgggQDjlHEAAAQQQQAABBBBwI0A4ddMUFAQBBBBAAAEEEECAcMo5gAACCCCAAAIIIOBGgHDqpikoCAIIIIAAAggggADhlHMAAQQQQAABBBBAwI0A4dRNU1AQBBBAAAEEEEAAAcIp5wACCCCAAAIIIICAGwHCqZumoCAIIIAAAggggAAChFPOAQQQQAABBBBAAAE3AoRTN01BQRBAAAEEEEAAAQQIp5wDCCCAAAIIIIAAAm4ECKdumoKCIIAAAggggAACCBBOOQcQQAABBBBAAAEE3AgQTt00BQVBAAEEEEAAAQQQIJxyDiCAAAIIIIAAAgi4ESCcumkKCoIAAggggAACCCBAOOUcQAABBBBAAAEEEHAjQDh10xQUBAEEEEAAAQQQQIBwyjmAAAIIIIAAAggg4EaAcOqmKSgIAggggAACCCCAAOGUcwABBBBAAAEEEEDAjQDh1E1TUBAEEEAAAQQQQAABwinnAAIIIIAAAggggIAbAcKpm6agIAgggAACCCCAAAKEU84BBBBAAAEEEEAAATcChFM3TUFBEEAAAQQQQAABBAinnAMIIIAAAggggAACbgQIp26agoIggAACCCCAAAIIEE45BxBAAAEEEEAAAQTcCBBO3TQFBUEAAQQQQAABBBAgnHIOIIAAAggggAACCLgRIJy6aQoKggACCCCAAAIIIEA45RxAAAEEEEAAAQQQcCNAOHXTFBQEAQQQQAABBBBAgHDKOYAAAggggAACCCDgRoBw6qYpKAgCCCCAAAIIIIAA4ZRzAAEEEEAAAQQQQMCNAOHUTVNQEAQQQAABBBBAAAHCKecAAggggAACCCCAgBsBwqmbpqAgCCCAAAIIIIAAAoRTzgEEEEAAAQQQQAABNwKEUzdNQUEQQAABBBBAAAEECKecAwgggAACCCCAAAJuBAinbpqCgiCAAAIIIIAAAggQTjkHEEAAAQQQQAABBNwIEE7dNAUFQQABBBBAAAEEECCccg4ggAACCCCAAAIIuBEgnLppCgqCAAIIIIAAAgggQDjlHEAAAQQQQAABBBBwI0A4ddMUFAQBBBBAAAEEEECAcMo5gAACCCCAAAIIIOBGgHDqpikoCAIIIIAAAggggADhlHMAAQQQQAABBBBAwI0A4dRNU1AQBBBAAAEEEEAAAcIp5wACCCCAAAIIIICAGwHCqZumoCAIIIAAAggggAAChFPOAQQQQAABBBBAAAE3AoRTN01BQRBAAAEEEEAAAQQIp5wDCCCAAAIIIIAAAm4ECKdumoKCIIAAAggggAACCBBOOQcQQAABBBBAAAEE3AgQTt00BQVBAAEEEEAAAQQQIJxyDiCAAAIIIIAAAgi4ESCcumkKCoIAAggggAACCCBAOOUcQAABBBBAAAEEEHAjQDh10xQUBAEEEEAAAQQQQIBwyjmAAAIIIIAAAggg4EaAcOqmKSgIAggggAACCCCAAOGUcwABBBBAAAEEEEDAjQDh1E1TUBAEEEAAAQQQQAABwinnAAIIIIAAAggggIAbAcKpm6agIAgggAACCCCAAAKEU84BBBBAAAEEEEAAATcChFM3TUFBEEAAAQQQQAABBAinnAMIIIAAAggggAACbgQIp26agoIggAACCCCAAAIIEE45BxBAAAEEEEAAAQTcCBBO3TQFBUEAAQQQQAABBBAgnHIOIIAAAggggAACCLgRIJy6aQoKEgtM3rspPL3pBWASCszdeXbYdWKbhEdg1wgggAACCNQTIJzW82LrIQqs/NeHww67bBO23naLIR41r0Otn9wUjvm/u+dVaWqLAAIIIOBagHDqunnyLpyE00VH7UY4TXga3H7Nw4TThL7sGgEEEECgvgDhtL4ZzxiSAOE0PTThNL0xR0AAAQQQqCdAOK3nxdZDFCCcpscmnKY35ggIIIAAAvUECKf1vNh6iAKE0/TYhNP0xhwBAQQQQKCeAOG0nhdbD1GAcJoem3Ca3pgjIIAAAgjUEyCc1vNi6yEKEE7TYxNO0xtzBAQQQACBegKE03pebD1EgVGH0//6r38JZ599Sli58u6wYMF+nZrfcsv/hFNOeUv46Ef/NixefEjx93ibITLN6FCE0xnx8WQEEEAAgQQChNMEqOyyGQGv4dTWToMq4bSZNmcvCCCAAAIIEE45B9wKeA2nb33rPmHduvvCpz51Wdhjj72KnlP7+NnPXiz+KdsdeujR4YorLi7+Lb//0pcuCBde+Ini33vt9cpw/fVrRupPz+lI+Tk4AggggECJAOGU08KtgNdwunbtPeGYY/afFk615/TUU48pPJctW1mEU3lIAJUhAvKQYQKXXfatcPDBRwXZdmJiYfjkJy8aWRsQTkdGz4ERQAABBCoECKecGm4F2hhOdZyq9JJKOF269LTwoQ+dUxj/9V+fEVavXtXpLZVe1OXLLx1p7ynh1O3pT8EQQACBbAUIp9k2vf+KE07TtxHhNL0xR0AAAQQQqCdAOK3nxdZDFGhjOI0v69ue0/jufx2TymX9IZ5UHAoBBBBAwL0A4dR9E+VbQC/h1LbAu9/9wXD66WdtNuZUt7E3OcWX9WUbbojK93ym5ggggAAC/QkQTvtzYqsRCIw6nI6gykM/JJf1h07OARFAAAEEeggQTjlF3AoQTtM3DeE0vTFHQAABBBCoJ0A4refF1kMUIJymxyacpjfmCAgggAAC9QQIp/W82HqIAoTT9NiE0/TGHAEBBBBAoJ4A4bSeF1sPUYBwmh6bcJremCMggAACCNQTIJzW82LrIQoQTtNjE07TG3MEBBBAAIF6AoTTel5sPUQBwml6bMJpemOOgAACCCBQT4BwWs+LrYcoQDhNj004TW/MERBAAAEE6gkQTut5sfUQBQin6bEJp+mNOQICCCCAQD0Bwmk9L7YeosDVF/0yPP/CrLDFFrOGeNTMDvXiC+GdH3p5ZpWmuggggAACngUIp55bJ/Oy0XOa/gSg5zS9MUdAAAEEEKgnQDit58XWQxQgnKbHJpymN+YICCCAAAL1BAin9bzYeogChNP02ITT9MYcAQEEEECgnkBpOL3qC5Nhq222qLcnth4bgY2PPxf+6PQ9w9ydZ4+0ToTT9PyE0/TGHAEBBBBAoJ5AaTi9+uIHw2En7llvT2w9NgI/uWl9ePVBc8KuE9uMtE6E0/T8hNP0xhwBAQQQQKCeAOG0nlcWWxNOs2jmopKE03zampoigAACbREgnLalpYZYTsLpELFHfCjC6YgbgMMjgAACCGwmQDjlpNhMgHCaz0lBOM2nrakpAggg0BYBwmlbWmqI5SScDhF7xIcinI64ATg8AggggAA9p5wDvQXaGk7/67/+JZx99imdCv7sZy+GW275n3DOOaeH669fU1nxU089JkxMLAyf/ORFvXG6bHHAAbPCpz51WXjnO9+/2VZvfes+4YILLgkHH3zUjI7R9JMJp02Lsj8EEEAAgZkK0HM6U8ExfH5bw6mEw5Ur7w4LFuzXaZV+wukwmpBwOgxljoEAAgggMA4C2YTTL33pgqK9PvShc3q229q194Rjjtl/s6DT84ljskFbwqn0eJ577hc7YbQsnMrv9CG9mnvssVfRk3rmmecVvawnnXRauPLKSzs9nhIiFyzYJ9x88zeLp2nY/eu/PiNcccXFnX1ddtm3pvWCSlnkObq9Hveww/4wLFu2Msh+1627r/N83U5+f+ihR3f2He839Sk17J7Tp59+OjzzzDNB/tSf5557Ljz77LPB/il/f/7550t/XnjhhaA/L7744mZ/l99V/Yin/p/+3f4Z/72bv+yHBwLDEpg163fvZXLM+N/9/k6e1+tniy22CL1+ttxyyyA/s2fPLn707/Z38vutttoqbL311p0f/bf8Hw8EqgSyCacSAuTR7fKuIunl4bgXLpfTqK3hVL6AXHjhJ8JHP/q3nS8hcc+p/lsCoV7Gl2Apl+LlR0KlBkQJpBMTC8LixYd0hgZ0++Ki4fiSSz5TPM9+EbI9p7KPU089tjgX5fcSlOXYUv7JybUzHl5Q5zxtKpw++eST4ZFHHgm//vWvw29+85vw+OOPhw0bNoTf/va3YePGjcWf8iMfTNtss820H/0As3/qh51+AOqf8oEpf5c/5QPWfoDqv3t98KqPfrjHf8Z+ZSGgzLjf7eq0D9siUPYlqOqLUT/bxl/c5Ite2Zc5+yWw7O/65VG/SMqf9u/y//KlU76M6p/yd/237FNC63bbbTftZ9ttt+38e4cddgg77rhj8TN37tziT3n9D/OxYf1zYfLe3w7zkNkd69VL5m5W5yzCqQYSqb0d9yfBYOnS04oQIduccspbimAif+rj3e/+YBEWNPjI7/fa65VFsNCgIttIr5r2krX9zPIeTuNeTPGW8aX60F7MsjGn2s7x9jac6pcSDYvHH39yrXAq5ZCedzv+NL6sL/9etuzaIqTqOSlfiuRHelqH9Rg0nK5ZsybIzwMPPDDVI7yuKO5uu+0Wdt555zBv3rwwf/784sNkzpw5Yfvtt+/8SYAbVstyHAR8C2h43bRpUyj7eeqpp4J86ZUvuU888UTnR8KrvLfssssuYdddd+38KX+X956mH/fduTH84t6nw067j3ZRmqbr5WV/99z2eDjpzIk8w6mElSVLjiwqb3umqsLpQw+tKy75akjRnlTtUdMbaE4//awihGiAle3KbobxchL0Ww7v4dSGUHtZ39ZPe0P1Mr72mJeNQY17TuNwKl9ONPDKMapueoqHFUiIXr16VaeHNP5i1LZwKr0r3/zmN8P3v//94sNh//33D3vvvXfxIz0aPBBAAIHUAhpYH3vssfCrX/0qyJ/6d+mhnZiYmPYjX5pn8pBwOpWNw14HzJnJbnhuhcDNVz0Y3vHBzVckHfueU+3dlGApD+kVteP9ynpO43BqQ4bsQ3rUli+/tOj5knA67HGCqc/ycQin2lMpVvZu/UHDqeyv15CQqjGv0ktre07lS8znP3/eZqF11D2nN9xwQ3GZTS+7279L7+iqVavCK1/5yvD7v//7Yc89Wd449euQ/SOAQD0BCa6Tk5PTfqSHdt999w377LNP8bPTTjvV2inhtBZX7Y2zDaf2cryq6ZjEfntOCae1z7dGnrDyXx8Oi47aLWy97RZ97c/e/GTHnWqvpwy7OOOMj282tVQ/Pad231KYsvHIdsyp3jylX1y63RDl4bK+vKl/4AMfCOvXry+spSdUxofKG7tcipee0o997GPhNa95TV9twUYIIICABwHpVZUhSPfee2/xpwwHeN3rXhcWLVpUDEPq9SCc9hKa2f9nG05tALW9nnozit4YYy/dy3a2hzW+QUrvsNbL+vSczuzkrHp23XCaphQv7VUCrI4FlS8rBx10+FgM4dAxp9Jr+slPfrK4mans8Rd/8RfhT//0T1MSs28EEEAgucDPfvaz8KMf/aj4kSFJb3rTm4qgWvUgnKZtkizDaTxWVIj1hhgZNygPO2m7/Dvu6dKbn7rdEEU4TXPyegmnMjTk/PM/3JlealxufJNW03D6l3/5l+Gmm24qbUh5A//sZz9bXNLngQACCIyLwO23316MoZcbro444oipe1OWbFY1wmna1s4ynKYlHd+9t2XM6fi2wPBqJuF07zeuD5/4xCfCL37xi9IDv/71rw+XXnrp8ArFkRBAAIEhCsgl/xtvvLG4cnTsscdOG75EOE3bEITTtL5jtXfC6Vg1Z9fKSDi95zdXhi9/+cul28m0LX/+538e3ve+9+WDQk0RQCBLgTvvvDNcd9114RWveEU4/vjji2nwmg6n8VSIen+EnZqy25BBew+MXh2umkFGG1FnLOpnEaJhNzzhdNjiLT4e4bTFjVez6Ld8fTL8y3VnhXvuuaf0mTItyxe+8IXizZoHAgggkIPAf//3f4c77rgjvOMd7wg7zNqn0amkbLi086sffPBRHVo7y5D9vWwQ36DdT3vIzbr2JuF+njOsbQinw5Ieg+MQTsegEfuswqp/vytccvVfFHflyxRSdoUZ+Z3c1XrhhRf2uTc2QwABBMZD4O677w5XX311mJj/hqnL/Ac3Ns9pWTiV2V/0vgYJkccdt7SYptI+7FLaOn+2ziKj972U3RsT99TqAjS9ZreRY9vVEnUGmqbvuSCcjsfrZSi1IJwOhdnFQb595X1h30M3dpYClULp8p+yTKCsulJ3XkAXFaMQCCCAwAwFZInV/1nxk6n3wYWNhlMNejYAyt+1h1PDqQ2HGkirel51fvZ4sSBZRCbuObXLZtte2hUrLu8sHKPlsaspduvRHZSacDqoXIbPI5zm0+iDLl+ajxA1RQCBnAVSjDnVoGkDqYwHrQqnevlfek8vueQznQBphwXEwVIXC5JpM2041efEbSrjVmX2orLL//F88b3GuNY5XwindbQy35Zwms8JQDjNp62pKQII1BdIHU7lZiV5yDzawwynZVNglo1NtcF4wYL9ijISTuufRzyjAQHCaQOILdkF4bQlDUUxEUBgJAKpw6mEvXe/+4NTi6D87vL7TC7r2+XZdZGheDEie0wJn9LrKseXoLx27ZrOUt16+V96VOXyvl7Wb/Lmqlo9p//52XVh94Xbj+RE4KCjF1j/4FPhD/54l7DrxDYjLYyXSfhHipD44ITTxMDsHgEEWi2QIpzaMaf2BqO459TC6dhPvcQuvZd77LFXsZpltxuiZB/2srxsK8+zN1zZ5bjtUttlixItWLBPp6e3iYatFU6/+o+/DK8/atcmjss+Wijw8x9uCL932I6tC6c655uSy4tZvhWec87pnW+CZc0h3xYnJhYW3xxn8pA3Fvsil4Hrk5P3F5dr5O8TEwtCr3nmpCzvfOf7h7Y0KuF0Ji3OcxFAYNwFmg6n4+5Vt361wunVFz8YDjtxz7rHYPsxEWjrZf04HEpz9BNOm2q2suPrvgmnTSmzHwQQQGB4AoTTtNaE07S+Y7X3toRT6WU899wvBhmkLY+ycGjnctPLINKTeuaZ5xV3Jp500mnhyisv7Qzwlksactni5pu/WezTzi1XNf2HbCdl0efI+KGDDjq8c+fjnnvuXfxdH9KjG/eQatllrjvbc2ovsTQ5CF3LQs/pWL10qQwCCDQsQDhtGDTaHeE0re9Y7b2t4VTH1djB2nHPqf5bB4prsNRAKCHRzi0nl+IXLz6kMzRAB4Tby/fa+GWX9fVSftxz2k84lefIQ4Yb6HHtnHNNnHSE0yYU2QcCCIyrAOE0bcsSTtP6jtXevYfTeMULwbehTXsxy8ac6rQY8fY2nGrwlLA7Obl2ao3lk0cSTqXX9IILLgm6fJ3U64wzPt75dxMnHeG0CUX2gQAC4ypAOE3bsoTTtL5jtXfv4VSx48v6thG0Z1LuSrQ3RJWNQbW9mLb3U8OpTrGhl+2rLq833XNKOB2rlxWVQQCBFgoQTtM2GuE0re9Y7X0cwqkGO2mYJsKp7E9W2uj2qBNO7WX+ePUPOxRAjifhuKzHt4mTjp7TJhTZBwIIjKsA4TRtyxJO0/qO1d7bEk5jdHvzkx13qpf5ZT45uSweTy3VT8+p3bcct2zMqZ1LToYN2ACqY0bludLzeuCBb+7MMyflkl5Z2aesjyzz1mnvbNmcc02ebITTJjXZV9MC37tmfXh03dNN75b9tUDg6U0vhNe+ecfw6iVzR1pawmlafsJpWt+x2ntbw2nKRpAAK/OVykNCp9yNL+NU2/4gnLa9Bce7/Dde9VhYuHh+mDNv9nhXlNptJvDrh58OTz6yKRx45PyR6qz54cbwxIYXw8T+c0ZajnE9+He/9lB4xwc3n7p01otTj7jSzHM6rqdBf/UinE53kl5PmeJJx5zaFT36E/W7FeHUb9tQshAIp/meBZ7C6W3XPx6235EvSCnOxifXPxP+5Oy9N9t1I+E0nuNRxsjZm0mqKiSXSlPM3ThTwPhGlJnur23PJ5y2rcUGLy/hdHA7nplegHCa3tjrEbyEUy7rpz1Dkl3WlyUj5UcveXfogZEAACAASURBVGo1+gmnaas8+N4Jp+vDqw+a07rlSwdv8XyfSTjNt+3bUHPCaRtaKU0ZCadpXL3ttdFwau9cLgunemexIsiNHtdcs7yYM1IestJOfBPIihWXF7+Xx157vbJzZ7S9EcX+XvetE5Xrc+2NMPa5OrG6lH3p0tPChRd+otiF/F5uQNG/y5yS9iYU+b3e/KKhVbaXVYCkhzj1Cj6jOJHoOR2F+miOSTgdjTtH7U+AcNqf0zhuRTgdx1bdvE7JwqkcSgOavYM57jmVfy9ffmmxbKTeSKJT7+gdyjoxuoZACaw6rY48/9Zbb9ish9auomPnsJShBkuWHBk+9KFzpq2vruFUfi/PnZy8v9inDdm251TGG5566rFFWJbfy0OnFJLnywTtOkm6/P+yZdd2ltNs66lFOG1ry9UvN+G0vhnPGJ4A4XR41t6ORDj11iJpytNIOI17FO2NITpVjvYoloXTOFzacGqn99GpfW677aa+wqkGWLvEYzznpAZHCZq66k4816SWIb6sb58bh+u4ubSHNk0zDmevhNPhOHs4CuHUQytQhioBwmm+5wbhNI+2byScKlXVhOQ2HJaFU7msL5fC9dErnNq5IOU5ZeuKl80lKdulCqd2Ocn4GONyKhFOx6Ule9eDcNrbiC1GJ9D2cKpD3GbaaaGfrWXzK4+uddIemXCa1tfL3ocSTu1l9SbCqeA9+OADxaX5qkdVOLWX9eWS/ec/f17n0nydntOq50p55BgTEwunBW4vDT6TchBOZ6LXrud6Cac/vXVDu+AyKO0rF+0Qttlui5HWlHD6Er98Dp199imli3+MtIESHpxwmhDX0a4bDae2Xvqi0d/Zb3Z6Q5LcpCSPuj2n8hx5QeqjbH7JqnAqz7E3RMU3Nck40W6X9detu69z3LLn6n/aoQ7jMv8l4dTRKzdxUTyEU1kJ5trLHg7/Z9FoV4JJTN2q3U/e82R4/WFzw8S+24203OMcTqs+O+1qcnoTsP0s06Fz8fP1yqJsK9vITcJlNxGPtEFrHJxwWgOrxZsmC6cpTaQn9o47vtvpOZUXXdml/ZRlyHHfhNN8Wt1LOL3p6vXhwKN3zQfeeU3v+f7jYe99tyGczrCdqi7r6+/180xvGJabbeVzTmedkQAq917IinS251Sfr/OE25t75fnaUSLPb+tKdoTTGZ58LXl6a8OpTvMkzh4n7G9J+9cqZtvDqbzRy6PbcBD5fztGuhbQDDf2NI8u4XSGjTmmTyecNtOwVeFUwqROf2iPJJ9xZZfv48v68h4n0yFquNX/1/stxuGzsm3h1A5rtG1q28ZerZ3pGRYfzw4zbNP9MK0MpzNtPJ4/mEC3cHrLLbdMTZ118GA7rvmslf/6cFh01G5h623rjXuLp/yqOizhNATCac2TMpPNCafNNHS3cLp69arOtIR6tKqxpYTTZtpjkL30u0JUVTi1x0wZTu1xCKeDtDTPcS9QFk4ff/zx8PWvf31qffmbp+aPXRJOPPHEMG/evKR16RVO5Zviued+cdq8svIGIfPjyhu/3vgW35ynU5XJTXI6tlgvo2mPhFTMXhqTDweZN1d6K+I7Zu3yvfFzdOU0fVOScdfaY2K31bHVOkZMg7MuEpFqOAvhNOkp3NqdE06babqqcKphU+/i1zmz99hjr3DMMft3Luvr+5nMpy1XEfW9J96vvAfJQ95vvC4LXld0HHpO9X1c3+vjHnM7LEOmxJTpNteuXVN8abGfK3ZxIXWMb0CXzybdnx2jLNvb8cj6mSL7PO64pcX5pg89v+yxU3326DHpOa37ysh4+zicSm/pihUrwhFHHBGOPvrosGrVqqnwt7oIqK997WuTSQ0STuXFL+OzZJYHvQGvKpzqVGX64ovHgWmIlQpKkJWVxXoNFdBL9rKwhF3W135jjhd5kDcHfVPQ7fRNQ29+SIVMOE0l2+79Ek6bab94tUT7pbfsi7D8v32OvaFJb77V33W7IYrL+s20n+xlpj2ndoGfuOdU51C/5JLPbNahYueFL+sJLbusL+OL5cduL9tddNHfdb642Bu35fg6d7uWU55ftiR9c6LT90Q4TSU7hvvVcLrl9r8tQumGDRvCCSecEF7xild0anvXXXeFq666aioIHhTe9ra3JVGoCqdl47XsN0P5e7c5dzV0xuE0DrH2ZgSdiqysovEHkHwwyKOfcBov/6tvJNIjbENrEuCpnRJOU8m2e7+E03a33ziU3nvPqZ1VQXoj5WEXE9I26BZOtTNFbnqTh84Dr59RejObbmdvbus3nMp+9WZy+VN768uGtel2EloPPfTooUyTSTgdh1frkOog4fS5be8P37rpa53e0rJDP/HEE+ErX/lKeP7554uQut12zU47c/8tc7uOOY0v68c9CVJmCYq2F1V+N0g4rfomaS+/y/Rktre1iXCa+pJKjuE0Pk+amm5nnCZKJ5wO6c2Ww1QKeA+nccG73RClnwVxz6kNp7rSpf2MShFO9Spdt3CqnSvDmFuXcMqbQN8Cd974aLjz/m+ELbZ9Mrz//e8Pc+dWzz/54x//OHzhC1+YWoxgIuy+++59H6OfDXd69qhw+B/vU3lDVBxO42+bVZcpdExWr8v6eslDX6g6ftSWXV7gsiSujBHSF7sEYhk7Zr9Fy750WEC3y/q6eIRe1iec9nOm1NsmvrlE2mPBgn2Ky14zeYzTROmE05mcCTy3CYFxD6f2y6xc1rfhVK7i6WX9qi+9cbi0n3/2sr7dV9nKmXpZ326n7Sf7POOMj0/dBH1UE01aug/CaTLa8duxXta//Uc3FGNL5ZK+9IzGj+uuu25qDr7birGnr3rVqxqH6DXmNA6Jchk8DnP6YpQAqTc/yZgbHZujQwS098yOA7OTXXcbg2P3IQFU31TiG6XkhioZs2p77uRb7A9+8L3OYhM6HmhYMwnk3HNqx/nqndNlE5jbc0LOOTtsRM9BncJH/63njl2kw950Z2+Mk9/LOXPzzd+cNml61ZjCxl9oJTsknA5DmWN0E2hjOLVTX0rd5LW95557d4Z49bohyt7TYD8/qsYQyzb2Bio75tTa2mFv9oZeOzRB39vs+07ZjVhNn7WE06ZFx3h/9oaon//858Vd+jvvvHMRUqUX9Te/+U0x3nTLLbcM73rXu8KOO+6YRKNOOE1SgAx2SjjdL9jxVfEE5nIK2PHGOtm5LFscTwXUrefUznWoYVc+JOTGOflA03FgOgH74sWHFL8vm2R9GKcl4XQYyhxjnMIprTmYAOF0MLcsn1U2lZT0kkov6qJFi8JPfvKTqcHShxZ37qd8EE5T6r6075zDqeraMafxNDy298JuL5fCdPqveCJ02zMRP1/+75prloflyy+dNhREw6kO/5BjVU2ynv6sCIFwOgxljkE45RxIGk7tG7BezorvfC5rAi/zsend1vH8lYOeNvElWbs0nd1n3Uu3/ZgOWmb7vKpJ+NeuXVvcvS+h9IADDmjiUF33QThNTpx1OC17vZeFU2mFqvGo+t4n4VJ6Qe0NBPZ1b99jCKf9n9c3XvVYWLh4fpgzb3b/T2LLsRBo22X9sUAfQSWShdN4Khyt27CC1Agsex6y39DZ73bDNm378qU9G4gNOgI595z2E07tJfgFC/YrZmOIF37QQCs3wdmJ0u1653bS9Tvu+G7PnlO9rK89qnaS9WGcvvScDkOZY9BzyjnQaDiVS09yd7I8ysJpPO+jXsqSmwDkISvkyI0fcgOAjruSVX105Zz4Mps2X9mUL/IBoPuUP8tW+pHf66U3OwBY9ycfLmWTHcvzdMyXrlurZbRjweJy29CpFnYydXuThJbNDpS2ZYktU0/KLuUhnObzhkE43W9aY5ddzbGvTXtlSC67y6NqovRly67trL4iz5P3CXl/kkevy/rxjXP2PWwYZ6eXcHr95Y+GF8KssPU29ZYwHoYRx0grsGnj8+FlL58d3vCWndIeqMfe+52Ef6SFbPHBk4VTMdGwZXsi4p5TvcSl0xbI8/ROar0pQAOkTrUjgVWnVyib5kD2oeFUJq+tmmfMzi2mk8zKcyVYS2+HPHTaH7s/GzJ1ih/90Ci7e7uf+TPtZLpVPafxlBDqMqzeaMJpi1/pNYueYzitSZTl5p7C6e6vnBO225HL+rmdiBt+9Ux48ZlnCadj3vCNhNO4x88ug6VBq2rMaVm4tOHUzgmp4UxWTegnnOo2cdiz68tKuWRZy7JQaUOtnYNSzgmd50uW/9JpGuz28VQMdr3aslBpw7Etb9l+ZAoKMdBVIwinY/4qHUH1CKcjQG/BIb2EU8actuBkSVRExpwmgnW220bCqdbJXta39ey2ZGRZsOoVTnWSdD1G2YTktlfUHt9Oeq7HThFO7WXAeF30OuG0bD+E04e7rhDl7DXWyuIQTlvZbMkLTThNTswBeggQTvM4RYYSTm2PYtllfRlzqr2Awt4rnMo2svSknZg2bq5u4VTGfMlNDDqP4emnn1WMAbNTv0gAlmEFZZf1dbynbG8vtdt62p5QnaNQyhuv0KB1L1sdSCfwthPlSg+s3BRhe5TpOc3jxTrMWhJOh6ndnmMRTtvTVuNaUsLpuLbs9Ho1Gk7truNVTOy4U72srjcBDBJOdS5BOaYdRqBlqAqntlxy85LsR8KfvcFIbmSQAGvDqezXDl+wd8uWXda3q8fIcXTCbr2JQo5pQ2V8+V6Op9voDRZ2P/HqNNwQlccLdli1JJwOS7pdxyGctqu9xrG0hNNxbNXN65QsnKbkkyAp065oz6ntpUx53Nz3zQ1R+ZwBhNN82rpOTQmndbTYNoUA4TSFqr99tjac2rVqq9aX9cfd7hK1NZyWrUVeNYODbSGdJswOOanTgmW94fp86Xm3y1PW2e8wtiWcDkO5fccgnLavzcatxG0Lp/181vRqo7pzn1ftL76xu9dx7f/bIYl1njfotq0Mp4NWlufNTKCt4bTsRdXEG0YdzWGNC65Tpm7bEk6bkhyv/RBOx6s921gbwungrUY4HdyOZzoWaEs4jVfrKQundjox6XmXeW3lJjNdG/2kk04LV155aWexBXlRL1iwT7FAhDx0DLWdiF1+r2OR42aMw6mOX5ZxxXHPrh1DbZcA1oUkhnGKeAqnr3/rrsOoMsfoQ+De2x4Pe++7TZjYd7s+tk63CVNJpbP1vudxCqf2c8h+dtj7W+Sz5tRTjw3r1t1XNE3ZgkL6maGLHy1ZcmSQe1Xi1e7icGqPY69Ax8c///wPdz77yhYc0eNrp49+jkqd5GGvdNt566VOZYsoyXPoOfX+SnRUvraGU715zIa7uOdU/33ooUd3Zo6IFz3QNw+92c7OmqCXXcqWvpQmjMOpvUwTr6amCzvI82699YbO+u3DvKziJZx+9Yu/DNuzfrqbd4GnnnwuHHbCLoRTNy2SX0HGJZyWdaLoDEBnnPHxcPDBRwX5nLjmmuXhuOOWTptRyM4YJGeAflbJ3+Xm66VLTyudzciGU/kcO/74k4vjyEP+T24ElyAaHz+eaajq+NrJYz9H7RSj8jyZG17Cc3wjfHwmE07ze20PXGPv4TTuxZSK2jlwtRdSZ2ew03HFLzb7gpfZGMqmAJMXtu6jyXAqYVUWWZicvL+zwIOUx64iNnAj9vlEL+H0pqvXhwOPpue0z2ZLvllbL+uXjTvvZxyfvObkdbhs2crktnUO0LZhQnXq1mtb7+HU3mugPYf2s0bqV3U/wpe/vDJ84APHTPvcsttXrQqpnxkyZ7vODFTmaMOp7bXVbT/96cvCxz720gxG8aNqGkzZTo8vn4nSS2qn5bQzK8m2dnn4blcDCae9Xgn8f0fAezjVgsbfSG0T6jdM/YZ3/fVriv8uG4Ma95xqr6j9YLCX3bvdmFen55Rw+lKLPb3phUA49fUG1NZwWnbVoZ9w6kv/d6UhnG4KBx45f6TNc9+dG8MTT0yFrQPmdC1H2WdL1bnX7+/j9rfhtGy1Sy1gHE7jK33dXhP9hlMbxOOrgjGUXtUsC8OE05Ge3u06+DiEU31xinzccxp/u+0nnFatilb2IrSXMbpd1pd9ypgdWWhCL+v36plt+kyi57Rp0fHYX1vCaXzJsiyc2nF1dnETHS8nlzblEqT27uiiLVdccXHRmHaYj/7O/l5bXMLJihWXB93GjrErG1MuH9jyiOe3lvF5ZeP9ZFs7DlHeZ+Qhx4vnyi6bE7xtZ6b3ntPYs+rmW7tapX1OvCDPD37wvaCrYmqIi6/06WeG7KdbOLWfaVWz0ZQdP756WHX8uNNHP7eq7sWQ8lZ9hhJO2/bKHGF52xJOYyJ7+cJeRtAPBnnDlg+iQcJpfGlk0DGn9tKHXVCh357Zpk8LwmnTouOxv7aG07Jx53EvUdm4c7uYiwYA+aDWnqt+hvaUfZBfcMElxVzdZWPKZYzh8uWXBrmqo8/V9xUN2bKN/bIr7xPyHib7lOdKwJZyajDW6fA0+HZbXdH7mdrGcGpvCLJfJuznh33fL7tRSoet6ZcbuxCPPrdXT6UOb9GwaL+g2S8uZce3x4u/9Ojxy4K4XeBI6i5XGKXjxX75knM1fhBOvb8SHZWvreE0JaF8KOh4tEHHhPZ6Q0lZ/qp9E05Hoe7/mN7DabxynojaL4x23HlZOLXj5eS5cTiVUCk3kOhr1n6prbq6EX9ga++V7ENXF9RjyZhB+eDW4Bk/V3u1JITacKqhU/ZjA2/ZOPxhrCaY8kxuWzhNaTHO+yacjnPrNlw3wul0UPkwslNsDHrJjHBafqIy5rThF3ADu/MeTrWK8WV9W3UNh2WXSuOrJ73CqXwx7XV1Y9jh1IZWW/4Gmt/FLginLpoheSGShdP4brSquaxsDQf9kLbdxlWXVaskhzk9T7fWjC/f9Gr5utvb/Q06AT3htFerjM//03M6Pm3ZZE3GIZxq76OMjzvmmP07dxaXvS/2E057jTuvCqdVY8rtJft+e07lc0wu1cY9qnoZt+yGkybPi2Hui3A6TO3RHSt5OLVTH+g4mqrqDhpO7SDfupRewmndcs9ke8LpTPTyeC7hNI92rlvLtoTTuF5V487tOD65ZD9Iz2mvcedV4VQu6Zf1uto7sbuFUx2zJ3WNb4iySy7HQx3qduDUPUdSb084TS3sY/+NhlP7DbJsSgIdtC1VtwOE5RuffotVlrI7IcvGylTd7agvXHup1b5I9cUsbyzSq6urL8SrF0h5eo3RkTc4eejdmLpvO97H9hzbXmU755f+Xb+tax10HXb7JqTl1qmQyhyqyhWvjhS/SVbNPUbPqY8X7TBKQTgdhnL7jtHWcJpSuolx5ynLN277JpyOW4uW12eo4bTshhHbWxr3nMq/5dKH3llYdcOJnfqg6u7EPffcu5jYXL9Ryr7k73o5RAa5V43P6dW7qiFQ9lfVKxlPS2QnqZVgLg/91m4nfraXZWzgt8eR0C310zve9EuATF8ij7hccRnl+f2sREQ4zeNNQWrZxnBa9dqzr6GZXGWJW79sZa+JiYXh9NPPmna5eJzOGsLp9NZsatz5OJ0jqetCOE0t7GP/jYRTOx2BVEt6K88994ubvUHbcGl7+rTHsOzNXtcyV66yXr14SS4755w8T3o+49V2dH9VE8vGK4p0m6fLhlobIONxt1J2CZFl85DZD1a7v9hEy/vQQ+s6YTb2l7rJdA0SxicmFhThvirYyrbxB3bVlwDCqY8X7TBKMU7h1HqlDKd6nDZP7t7r3CKc9hLi/1MLEE5TC/vYfyPhVKvS67K+hkjp0dMl4WwoKwundqqNKrI4nGog6+dDqWpZShl2oGNz7P7LylAVTmXfumqQbpMqnOoUJ7Z8VeXqNgZKnk849fHiHGUp2hBO46skZT2nGhR1eI/9Uiy+dviQvG/IFYS1a9cUc0yWDZWxbWLfr3TIkLze9S5w3dYO6dErNfL+ohO/2yFO3m9cIZyO8lXJsUWAcJrHeTC0cGovVdvwI39fvXpV8WEQh1N5w+91E5U0kw2PVXcnxst9yb+lR7EqnMrKIDJNiN4VP0jPqexbP2zk7/JhdNxxS6f1KEt55cPM9oTW7Tm1toOEU3tZv9tKRPSc5vGmILUcl3AqdbHvK3HPqb5G9X1Iv+T1M9Sl6st0PEWRLi2ow4jiya71vaUNS1ISTvN5D/BaU8Kp15ZptlyNhlNbtPiStn1Dtv8nPQ2yOk68YoHehBRPIlzWsxD3bFbdnWj3pfuvuqxvVw+ScWTysHdA9hMCbTmknp///HnTVv2QfUivyrJl184onMp+yoZJVPWc2u3LepSq1ognnDb74vO8t2/88w/Dqh9+Nuy0005h1qxZxc8LL7wQnn766bBp06bw2c9+Nuyyyy5Jq1A1z2n83iKFsMtP6k2CWrhu4bRsfLa+PsomSLcrmfQbTqW8p556bPHat2Pc455eu11S2BnsnHA6Azye2oiAh3D67W9/O9x4zV3hHSe8L+x1wJxG6sVOpgskC6dAj58A4XTzNrXzzcr8hG1eFtDW7jtX3R8u/tqHwyOPPFL8+mUve1nYdtttw6JFi8JrXvOa8J73vCf5Cd5rEv5+LutLIfsNp3Y4UD/jsAcNpzpciHA6+Cl041WPhYWL54c582YPvhOe2UqBUYbTRx99NHz9618vvqi/8VVvD1tsMY9wmugsIpz2CRuvD6tP6zXNVJ+7b8VmbQ2n/UxEPegcu3Z4SFWPcysaNyqkXNb/2urzp8Zg3jo17OTA8Fd/9VdTvX4HhC233HJo1UkdTvU1LVdj4pk6+hnqUjV2O76sb2fziGf+iGcLEdyqKzRDg+9yIHpOPbRC3mUYVThdvXp1EUzf9ra3hSOPPDKs+eHGMHn/M2G3V2ybd4Mkqv1PV/86vOvDL99s77NenHrEv7364gfDYSfumago7Na7QFvDaT+ug4bTfvbdxm0knM5++Y+ngtInp2bfOCz8zd/8Tbj77rvD/vvvP7Tq9AqncUHKvkDGM2T0uiHK9nz3WpZSji9DihYs2KcYnx4vi6nli2+IspOg2zL3s4re0PArDkQ4HXULcPxhh1PpLf3GN75RDGc64YQTpmbAmSgaQcLp3XdsDPNetjWNkkBg3V1Phnd/9KVpNu2DcJoAu+27bEs4lZAgU5ktWLBfZwotO7ZWxhDrdGNld1fHN7/FYxy1h1RvYNF92V50u9BBt5vpvJ4TEk7f/I7tphbLOCXMnz8//PM//3MRTs8777ziZxghtW449Wo5TuUinI5Ta7azLsMMpzfeeGMRTI899thw1FFHTQO7786N4Yknpu4bYcxpkhOJy/pJWMdzp20Mp9IS8ZjDJUuOLMaGdlsAoqoF48UPdPECO7elhGM9xqBLxY76DNK79ZctWxa+8pWvhBUrVnSK9MTUO/KOO+4YfvnLX4aXv3zzyy5NlZ1w2pRkc/shnDZnyZ4GExhGOF2zZk247rrrwvbbbz81w85xYffdd9+ssITTwdqv32cRTvuVYrvgPZzGMztIk8l4wqobYrrNsRs3d9msEfHUPzqe8Jhj9u/MkSv7sfP/tuU00nB6zz33hLPOOiv827/9W9hhhx2mBdTzzz+/GHt1/PHHJ6kW4TQJ64x22tZwGi+qIu8L/SyWUDVN30wQ7fhmeW9YuvS0ZDdSpt7/TBwGfW7KcPqrX/0qrFq1Ktx3331T79tvnepkWFJZTMLpoC3Y3/MIp/05sdWUgPdwqo1kL+vL72YaTu18u/YDLYdwKn633XZbOOigg0pfAzoONUUvKuHU39tOVTj9+c9/XvSuH3744cUNdKkfde/WL1uCup9wmqIeVctkpzjWOO6zKpxu2LAh/OQnPwlvfvOba1f7t7/9bfjOd74TvvWtbxWh9Oijj566E3+LrvshnNZmrvUEwmktrrw3zjmcSsvLUACdu1Z6XqrC6fnnf7hzWV+Csc5v26azp+4k/DfccEMRTj74wQ82Nh6VcOrvjCkLpytXrgw333xzeMMb3jB1peJn4bWvfW34oz/6o6SF7xVOJQAef/zJ4eCDXxonWBZO7bLPdp7cM888r5h7+4wzPh5kMRZdMlu2P/TQozvj1e3qYnbJ7LIx5nHPrexzcnJtsS/Zfo899ioWZ5G/y4phMq5dfle2epgdA29vorM38Ml+ZCVG3b84lM3zrQtEaPntfORJG3AGOy8Lp/IF+tOf/nSYO3du+Kd/+qe+9/7YY49NLQK0uvh505veVIwr3Xnnnft6PuG0L6aBNyKcDkyX3xPbEk7jlumn51Seox9WZdOD6Q1O8qEiq5bJB9iDDz5QfMDo1D/2A9DeEGXvzm7LWVM3nGq9dDyqTNIvl/zf+MY3DlxlwunAdMmeaMOp9pbKQg0ytGPevHnhqaeeKsYoy3lw4oknhl133TVJWeqGU/1SqUFTChX3nOowHwmg+pqOL8HL614WYtAvphKAzznn9GKBharV9eLFFeJ9yqpkGk7te48dDiRl01UL7cqD8t4mz5UgetBBhxdlk4ccQ+qgC9TICoT2S3LV78tCfJIGnMFObTiV3tIrr7wyXHXVVcWNm//wD/9QnIfdHrKQyE9/+tOp4H5FmD17djjkkEOmvnQc2vN58T4JpzNoxD6eSjjtA4lNXhJoazil/eoLDBpO7ZH+4z/+IxxxxBHFTVPyd7nDv05YJZzWb7fUz9Bw+uP7vlP0lkoolR6n+CF3OV9//fXhXe96V5LL/FXhNF4dUMplvxxq72LZmFM7763WpyxISi+kfuGV3tVe4VTKJA+dpqxbONWyxj2t8nzpJZVwLP8nU5fZR1Wo1BAq4dUuMqFl2nPPvaftL15tMfX5NMj+NZw+t8O94R//8R/DXXfdVSwS8vd///dh4cKXVnO0j1//+tdTKzA+NNWZ8GCQL1TSu//qV7+6+JHe/q222mqQYoTJezeFG7/yWNhxJxaCGAiwx5OefPy58Ccf23uzrZhKKoV2y/dJOG15A9YofhPh1B7u9ttvLz4cM7Ip2wAAIABJREFUJKzKnf7Ss/rkk08Wk/vbf//Zn/1ZJ8z+ct2jYdHEe8Ib37b5nbI1qsKmDQrcdcv6cMePrw3PbfVI+MAHPtC1t0nueP7c5z5XXCaV8NDkY7dZR4SD33ZA5QpR8WV9e+x4PlpdErtsZo1e4VTnt7355m8WhyhbiKNOONWyVM27XPX73MLpzatuCf957f8rVrCTeUflC5JejpfVm5577rmwcePG4mfOnDlTvct7FD977bVXEUq33pq5SZt8PQ5zX6Xh9N8/9cDUm8Fg3zKGWXiOlUbgqY3Phbe+Z7ew68Q2aQ7Q515X/uvDYdFRu4Wtt+0+YL3P3bFZiUDT4bQfZLkULA8Jq/L39Y9tCHffslV4wx82G2z6KQvblAtIz+kzs9aFb3//a0WPaNVMDRIK5FLrs88+W3whkcunTT7W3r5D1+VLu4VT7R3US+kzDae9ZuOIA2W3nlMtiw4RqJpz2YZYWZFMxrnLJX29rK8r13W7fC/7lsv9tie2LT2nk/c+HL7zw8uKG5jkMr2McX7ve99bnGJyI5OcbxJK5afpc6/J85h91Reg57S+2dg/g57TsW/iTgVHEU5jXS7r+zvf9LL+zlOL5MgNcA888EARUO2iDHLZVMadLl68uJi8PMWj15jT+Jh2DLgdd6o3Ccklcxn7qZfo9fn99JzafcvzysaYx1PR2Zus7JhTDZ2yn3jFM+2VjVcVW7bs2mLBEXuDl25rw6Ytgx4/Ds5tCadPPrIpHHjk/GLapy996UtTY/8nw0c+8pFw8sknpzjd2KcjAcKpo8bwUhTCqZeWSF8Owml64zYeIb5b/3//93+L9ca1F1V6smRKHrkZ6nWve12yKtYNp8kKMrVjGSagY0AlANobk1IeN9d9x3fryxckWcHupptuKgLq29/+9lxpsqg34TSLZq5XScJpPa82b93GcBr3NPUzLU48HVi/baY33tipfPp5blNza9q5d6uO28820utXNk6yap9lU0nJmuMSUGVKKZljUoKp3MGf8uElnEp7yiV1HXPazzmX0iWHfVfNc/rVr361WNVJelJ5jK8A4XR823bgmhFOB6Zr3RPbGk7tZdl+VvcZNJwOOuVOU+F0VCdUtxWi5OaUpm98qqqnl3A6qnbI+bgpV4jK2bUtdSectqWlhlhOwukQsUd8qDaEU+kplSlydE7KsrutZQydjMm75prl4cILP9FRlbF9cU+rjhUsG7tnm8OOMdQbVuwE6GVjGuX50kMpN6/IZOvS47pu3X3Fn3aOTD1Ot95MLbfOiSnHnphY2Jkc3k7gHs+bKceUh9RVe/y03mWTtMenYVuXLx3xy4nDNyhAOG0Qs4W7Ipy2sNFSF5lwmlrYz/7HJZxKcJO5KHWlIBG2N7nEPafxXd4abuWGE33EvZ+yD5kvUu+U1mPeccd3i6fY+S1PP/2sIpxqINRpjfS5sn1ZyI7PDFtu2ceSJUcWx7E3uMTbqIOUX8K6bK89wD/4wfdKJ2m3blIGwqmf12iuJSGc5tryL9W7NJxe+fnJ8NrD+1vaK2++8az9z+/cEN509HymkhrP5p1WK8/h1C7fqIW2y09KT6Q+bDi1PZ7ao1i2BG3cvL2m87E9rfpc6b2UFXnkTmwb8OJga4NyfEe3vXO7VzjVaYRssNW6aSAu25+G00su+UzpJO0arPX4hNMMXvzOq0g4dd5AiYtXGk5lua6nNz2f+NDs3qvArKmCLVy0Q9hmu9HOL8o8p+nPEM/hVGvfz2V9DV+nnnpsWLr0tKK30AbSsnDaa7nZOGBWTb9T9vuqcCp1kmVx7SV+wmn1ec6Y0/TvAV6PQDj12jLDKVdpOB3OoTkKAt0F6obTeClAHW8Yz2kYH1XH8umYxpTtYi/v2juoB513sNfNQL1uzBmHcGrbz16el7/r+ulxOO2nzcsC5uTk/ZstKWl7ReXckWMdd9zS4rK+Bk/dRs8tDc8yPrapcGrXWJdeXCm/XMaX3taqy/ry+7jHWMpIz2nKdwH23Y8A4bQfpfHdhnA6vm3b+prVDadld1b3M65vmFBlYw/l+IOG015lH4dwGtcxvsHJ3gxkv6DIJfezzz6lE/70cr+dGF1vHCqbGqjMzt4QZaeXim+UqgqnOv5T6iTlkF5UWUfdjkW19Y3Hk3a7rK9frspu5LKvjbJJ2mNjwmmvVxb/n1qAcJpa2Pf+Cae+2yfr0vUKpxIIzj33i8WqKfIoC6f2g1rvbpaeVAkEElxOOum0cOWVl3bmgJSQuGDBPp35DMvucJZjlfU2Vd0FrXNlamNKOSREyZyJsn8ZB3jFFRcX/60hyYas+E5vOfYpp7xlapWUM8Lll19UhBwJPTYg6X7GMZxm/aIYUuUJp0OC5jCVAoTTvE8Owmne7e+69nXDqYZAO8VP3HOq/9bLvQIQX2rX4KmXYhcvPqSz3KGGvXi8ooTJBx98YNod27KCjKzrfdFFf9e5FBwfy05rpDfVxMfQcmhvnO0pjC8pa4NWrSseN3gbLuu7PkkbKFw8HEV3ac/jBg5TaxeE01pcbJxAgHCaALVFuySctqixcitqVTiN73YWFztuT3sQy8ac6iXheHu9XGp7X/WS6vHHn9wznNpeSxsuJifXTlvmsJ9wGq+DLWWWgCu9xHZ6IjmODadla3TrfJtV4xoJp7m9qvqrb1vDadWwmf5qXb1VrysQ+sxux+93iFH8+q8qlX2997q5b6b1H8XzCaejUPdzTMKpn7agJJFA3Z5T+3T9kJCeS3tDVNkHRFVgjMf76dKFZROnV30oxWtwNxFObdCMe1XtZPESuAmnvKwGESCcTlfzGE5TBfFBzpcUzyGcplBtzz4Jp+1pq+xKOpNwqpe1Ba2JcCr7s/Nqxo1Rtb552V3iZb209oao+LK+Tr4e32Rje07l/2QaJTtFkYbobktw0nOa3cuqrwq3JZzGiyl0+5Ko47rjuW/j38fz68r4bb1qIV8M5f9l1a21a9cUq3/JQ35vx5bbm+UUPB7/Lu8D9jl2vLn0ni5btrJ4atn487KVysrGvMtzb7vtps3GtMt+e62Q1teJknAjwmlC3BbsmnDagkbKtYi9wmnsYt/87Xg9fSOXN39ZPSeeWqqfnlO7bzlu2WW0qsnV40v+ZaHRfgDJvmUKILlhSx7dbm4qm9xdPhhlrs9bb72h+IDTcpVd2iec5vrq6l7vcQqn8tqShRL0y6V+EZSVvfQ1YntG7fuBvHbkYRc4KPvyqF8461zWj+fvlaAqD1mFTMOpBmEbVCVsxtOGVdXxoYfWTau7XYxBjiX76bdXeNivFMLpsMV9HY9w6qs9KI0RqBtOU+LJh45+QMSX6lMeN/W+Caephdu5f+/hNJ4BQ78wSo+mBkWVL5uHVv9PxoTbKbjki6HdR7dwGs9hqzNmxMfXY8VDisrGzkuvrtxIqeG0rJ76ZdVebamqow26Ug59jnxBt6ua2RXWvJyxhFMvLTGachBOR+POUfsQ8BJOtfdCx5yWzYnZR3VcbkI4ddksIy+U93Bqg6fcsKhLx5b1XNYNp9LbKFO1ySOexk0v65ctsDBIOJ2YWNCZ4UPrZG+IiocF2RODcDrylwkFSChAOE2Iy65nJuAlnM6sFr6fTTj13T6jKt04hdP4kreuiiWX9ct6Tq+5Znlxad0ujGAvfVctTVs3nOpQnni4je1h1Tvyy4YR2XBaVUcJ2nb8qj5nxYrLi1NLeo3LZjAZ1Xlnj0vPqYdWGF0ZCKejs+fIPQQIp+lPEcJpeuM2HqEt4TS2LZvSTcJf2apYca+kjseUcCrLyupDLrWXjTktu6xvp3cqW6jDjn+XYULxZXs777EsBiLbxPPg6n7jVeXK6hhPS2WfY2+IKivrqM9bwumoW2C0xyecjtafo3cRIJymPz0Ip+mN23iEtobTJqwl0MlDek6ll1RnwWhi3+yjfwHCaf9W47gl4XQcW3VM6kQ4Td+QbQyn8WID/YwB7jZ2r5uy9myVTQ3U7XlN3gGtPVwyA4U8li+/tOu0Zk2cNbmHU50pQyw99io20cbe90E49d5CactHOE3ry95nIEA4nQFen09tazi104HJ5czJyfs7symUVX3QcNptjthhhNN+Vwvqs7n73izncNo3EhsmFSCcJuV1v3PCqfsmyreAhNP0bd+GcBrPB1m2ypf0Li5bdm2IxwvqErZ697WI2nF9Ool62apfdm5bu/KWztpg59K14/1kX7oyl/S4yjHiu761ZcuOq/8XT74uU/9IPXQSeRm/ODGxsDPBerd91T2TCKd1xdi+aQHCadOi7dof4bRd7ZVVaQmn6Zt7XMJp2TyNdgqhuOc0XllIw+2CBft10ONL87IPexe3HlPu+paH3K0tD9m33kCjQbhsiqN+1lqPyx0vqbtkyZHFcZvuYSWcpn/tcYTuAoTTvM8Qwmne7e+69oTT9M3jOZzGy0iKhvRWLl58SOkqX7L6l8x3aXs846Uq7YTrsW48tjAOp/buZtvzKasP2QnN5f+6TTdUtZJYWWv3Cqc64Xs/QbfO2UQ4raPFtikECKcpVNuzT8Jpe9oqu5ISTtM3uedwqrXv57K+jg2VO6tl6VbpTbTBrmraINtTGmuXhdM4hMpz4il9uoVT+T+9oamfm6YIp4+FhYvnhznzZqd/MXAEVwKEU1fNMfTCEE6HTs4B+xX4xpcfCnvss0OYvdWsfp/CdjUF1v30ifD2U/eo+axmN3960wvhpqvXhwOP3rV0x73CqY691PXGZeyphE4JjYceenQx0Xgc8uxzqmpT1vtZduNV2QpExx23NJStIqTH0vAs82nGk7Db8hBOCafNvtraszfCaXvaKkVJCacpVNlnIwISTnee2G4qnG7RyP7YyeYCj9y/0X04jUsdTyWll+5lO3sTkdwgJFMCafjTy/16I5O9TF82HVVZz6ad5N1OL2V/L/uvCqcSSm05pBf1zDPPm7YaEeH0dwI3XkU4zfV9i3Caa8u/VG/Cad7t77r2XNZP3zxtuKyfXoEjxAKMOeWcGLUA4XTULTDa4xNOR+vP0bsIEE7Tnx6E0/TGvY4QL0+p29upqnrto+n/J5w2Lcr+6goQTuuKjdf2hNPxas+xqg3hNH1zEk7TG7fxCG0Np3Z4hbjPdHWnpqfoGsW5UDaNWepy2BkpZFiN/QKmX7p09TUpS9m4a8Jp6lbyvX/Cqe/2ybp0hNP0zU84TW/cxiO0OZza6bVk0YJuN5z1ahvCaS+h8v+PbxKUgLxs2cpiY7vqWrcZKwing9mPy7MIp+PSkmNYD8Jp+kYlnKY3buMR2hJO48UU4l5CuentIx85L3zuc+cVN57JDXLSmyoPu2qYBli9SU5udpNZH2TGBX2UPc+uHCYLIsjsC9pjq/vXlbvieXt1gQZ7fsRz4Govo4a9W2+9YWoO3TXh+uvXFIs9XHHFxcXT9aZAe7OgPFceWia9gc8+z65cdv75Hy62lxXQ5AZBWx/1sb2d9iZCvclPfxeHU1tH2Vb3Rzht47vDcMpMOB2OM0cZQIBwOgBazacQTmuCZbL5OIRTDWoSIM855/TOtGLShBJCJeDJQ7a76KK/K8LY5OTaYuoxfXTrObX/Z6cmkwCnc9naxRHkmDozQ9V+41AnQU7Kv2LF5WH16lWdxR7k+Q8++MC0VckOOujwULYgRLfL+vp/utyuhm0pq84XrGWSxS9sT7Q+97bbbppaRndBpyxiVxZO9dK+7ckmnGbyhjJANQmnA6DxlOEIfO+a9eHRdU8P52CZHmXbOVuEP3zv7iOtfa95TkdauEwP7j2c2h48bSLpiZTeP+n504ft7dRQVHYDmvYgShi0N6KVhciy6cRsALRz02r4krLZeW+lfLYHUcsbhzr5t4ROCYDy0OAcj62V/5Nyy/K60jtse2XjcBr34JZNfWYXltD6SAC14V1spFy6VK/2EFeFU60jl/UzfVOpWW3CaU0wNkcAgWYFCKfNejaxN+/h1Ia5448/uVi2Vh5lvYTx0q69xpFq8NUbeWR7HS8pYVEXYrD7HUY4tb2TvW5ysgtQxNtKONQgqWE4npe3TjjVwCz7kt5dHXIQ96Zqm9ny0HPaxKt1PPdBOB3PdqVWCLRGgHDqr6nGOZxqIOp2J7+EMxlz+oMffK+409yGU+nJlJuubBjrFU4l6NrL+hKAZfyo7res59T2ul5yyWemXTq3QwfKzh4dqiD7LwundmGKfntO5UuAvaxv62N7RWXftgdY6iE92vaGKLUnnPp77XspEeHUS0tQDgQyFSCc+mv4toTTWK6fnlN5TrzKmPQkyhhOvXnIXqLWm6TkpiO9hC370BXIJGjJmFWdJaDssr4EtvhyetksAvENUXEPp6wwZoOs3hAlv9MAvG7dfcUmun9bVynrHXd8d1o9ZZyq3vxlbwy74IJLih5pWx87nEJvwrJl1tAZD08om0pKykg49ffa91IiwqmXlqAcCGQqQDj11/BtDaf+JOuVqNtd7vX2NNqt+60H4XS07eT56IRTz61D2RDIQEDC6arLHw0Lf29uBrVtRxUfvHdjeNUb54SJfbcbaYFvvOqxsHDx/DBn3uyRlmNYB+831A2rPIMeJ56Ev2w/TMI/qG4ezyOc5tHO1BIBtwISTr/x5YfDnvtu77aMuRXsV+ueCgf+wVzCaW4N76i+TMLvqDFGUBTC6QjQOSQCCPxOgMv6/s4GLuv7a5PcSkQ4za3Fp9eXcJp3+1N7BEYuQDgdeRNsVgDCqb82ya1EhNPcWpxwmneLU3sEnAkQTp01yFRxCKf+2iS3EhFOc2txwmneLU7tEXAmQDh11iCEU38NkmGJCKcZNrqpMpf1825/ao/AyAUIpyNvAi7r+2uC7EtEOM37FCCc5t3+1B6BkQsQTkfeBIRTf02QfYkIp3mfAoTTvNuf2iMwcgEJp1/5wmTYec+tR14WCvCSwDNPvRDecNR8ppLihBiZAOF0ZPQuDkw4ddEMFAIBBBBAIBbIbRJ+zoDfCRBO8z4bCKd5tz+1RwABBNwKXHfZw+HJDc+H2Vtt4baMFCyNwDNPPx8Wvnr7cNAf7pTmAOzVtQDh1HXzUDgEEEAgXwF6TvNte3pO8217qTnhNO/2p/YIIICAWwHCqdumSV4wwmlyYtcHIJy6bh4KhwACCOQrQDjNt+0Jp/m2PT2nebc9tUcAAQRcCxBOXTdP0sIRTpPyut85Pafum4gCIoAAAnkKEE7zbHepNeE037an5zTvtqf2CCCAgGsBwqnr5klaOMJpUl73O6fn1H0TUUAEEEAgTwEJp1ttPzvMmbdVngAZ1/rZqamkZs96IRx45PyMFfKtOuE037an5ggggIBrgcl7N4Un1j/ruowULp3Ay/fdPszdeXa6A7BntwKEU7dNQ8EQQAABBBBAAIH8BAin+bU5NUYAAQQQQAABBNwKEE7dNg0FQwABBBBAAAEE8hMgnObX5tQYAQQQQAABBBBwK0A4dds0FAwBBBBAAAEEEMhPgHCaX5tTYwQQQAABBBBAwK0A4dRt01AwBBBAAAEEEEAgPwHCaX5tTo0RQAABBBBAAAG3AoRTt01DwRBAAAEEEEAAgfwECKf5tTk1RgABBBBAAAEE3AoQTt02DQVDAAEEEEAAAQTyEyCc5tfm1BgBBBBAAAEEEHArQDh12zQUDAEEEEAAAQQQyE+AcJpfm1NjBBBAAAEEEEDArQDh1G3TUDAEEEAAAQQQQCA/AcJpfm1OjRFAAAEEEEAAAbcChFO3TUPBEEAAAQQQQACB/AQIp/m1OTVGAAEEEEAAAQTcChBO3TYNBUMAAQQQQAABBPITIJzm1+bUGAEEEEAAAQQQcCtAOHXbNBQMAQQQQAABBBDIT4Bwml+bU2MEEEAAAQQQQMCtAOHUbdNQMAQQQAABBBBAID8Bwml+bU6NEUAAAQQQQAABtwKEU7dNQ8EQQAABBBBAAIH8BAin+bU5NUYAAQQQQAABBNwKEE7dNg0FQwABBBBAAAEE8hMgnObX5tQYAQQQQAABBBBwK0A4dds0FAwBBBBAAAEEEMhPgHCaX5tTYwQQQAABBBBAwK0A4dRt01AwBBBAAAEEEEAgPwHCaX5tTo0RQAABBBBAAAG3AoRTt01DwRBAAAEEEEAAgfwECKf5tTk1RgABBBBAAAEE3AoQTt02DQVDAAEEEEAAAQTyEyCc5tfm1BgBBBBAAAEEEHArQDh12zQUDAEEEEAAAQQQyE+AcJpfm1NjBBBAAAEEEEDArQDh1G3TUDAEEEAAAQQQQCA/AcJpfm1OjRFAAAEEEEAAAbcChFO3TUPBEEAAAQQQQACB/AQIp/m1OTVGAAEEEEAAAQTcChBO3TYNBUMAAQQQQAABBPITIJzm1+bUGAEEEEAAAQQQcCtAOHXbNBQMAQQQQAABBBDIT4Bwml+bU2MEEEAAAQQQQMCtAOHUbdNQMAQQQAABBBBAID8Bwml+bU6NEUAAAQQQQAABtwKEU7dNQ8EQQAABBBBAAIH8BAin+bU5NUYAAQQQQAABBNwKEE7dNg0FQwABBBBAAAEE8hMgnObX5tQYAQQQQAABBBBwK0A4dds0FAwBBBBAAAEEEMhPgHCaX5tTYwQQQAABBBBAwK0A4dRt01AwBBBAAAEEEEAgPwHCaX5tTo0RQAABBBBAAAG3AoRTt01DwRBAAAEEEEAAgfwECKf5tTk1RgABBBBAAAEE3AoQTt02DQVDAAEEEEAAAQTyEyCc5tfm1BgBBBBAAAEEEHArQDh12zQUDAEEEEAAAQQQyE+AcJpfm1NjBBBAAAEEEEDArQDh1G3TUDAEEEAAAQQQQCA/AcJpfm1OjRFAAAEEEEAAAbcChFO3TUPBEEAAAQQQQACB/AQIp/m1OTVGAAEEEEAAAQTcChBO3TYNBUMAAQQQQAABBPITIJzm1+bUGAEEEEAAAQQQcCtAOHXbNBQMAQQQQAABBBDIT4Bwml+bU2MEEEAAAQQQQMCtAOHUbdNQMAQQQAABBBBAID8Bwml+bU6NEUAAAQQQQAABtwKEU7dNQ8EQQAABBBBAAIH8BAin+bU5NUYAAQQQQAABBNwKEE7dNg0FQwABBBBAAAEE8hMgnObX5tQYAQQQQAABBBBwK0A4dds0FAwBBBBAAAEEEMhPgHCaX5tTYwQQQAABBBBAwK0A4dRt01AwBBBAAAEEEEAgPwHCaX5tTo0RQAABBBBAAAG3AoRTt01DwRBAAAEEEEAAgfwECKf5tTk1RgABBBBAAAEE3AoQTt02DQVDAAEEEEAAAQTyEyCc5tfm1BgBBBBAAAEEEHArQDh12zQUDAEEEEAAAQQQyE+AcJpfm1NjBBBAAAEEEEDArQDh1G3TUDAEEEAAAQQQQCA/AcJpfm1OjRFAAAEEEEAAAbcChFO3TUPBEEAAAQQQQACB/AQIp/m1OTVGAAEEEEAAAQTcChBO3TYNBUMAAQQQQAABBPITIJzm1+bUGAEEEEAAAQQQcCtAOHXbNBQMAQQQQAABBBDIT4Bwml+bU2MEEEAAAQQQQMCtAOHUbdNQMAQQQAABBBBAID8Bwml+bU6NEUAAAQQQQAABtwKEU7dNQ8EQQAABBBBAAIH8BAin+bU5NUYAAQQQQAABBNwKEE7dNg0FQwABBBBAAAEE8hMgnObX5tQYAQQQQAABBBBwK0A4dds0FAwBBBBAAAEEEMhPgHCaX5tTYwQQQAABBBBAwK0A4dRt01AwBBBAAAEEEEAgPwHCaX5tTo0RQAABBBBAAAG3AoRTt01DwRBAAAEEEEAAgfwECKf5tTk1RgABBBBAAAEE3AoQTt02DQVDAAEEEEAAAQTyEyCc5tfm1BgBBBBAAAEEEHArQDh12zQUDAEEEEAAAQQQyE+AcJpfm1NjBBBAAAEEEEDArQDh1G3TUDAEEEAAAQQQQCA/AcJpfm1OjRFAAAEEEEAAAbcChFO3TUPBEEAAAQQQQACB/AQIp/m1OTVGAAEEEEAAAQTcChBO3TYNBUMAAQQQQAABBPITIJzm1+bUGAEEEEAAAQQQcCtAOHXbNBQMAQQQQAABBBDIT4Bwml+bU2MEEEAAAQQQQMCtAOHUbdNQMAQQQAABBBBAID8Bwml+bU6NEUAAAQQQQAABtwKEU7dNQ8EQQAABBBBAAIH8BAin+bU5NUYAAQQQQAABBNwKEE7dNg0FQwABBBBAAAEE8hMgnObX5tQYAQQQQAABBBBwK0A4dds0FAwBBBBAAAEEEMhPgHCaX5tTYwQQQAABBBBAwK0A4dRt01AwBBBAAAEEEEAgPwHCaX5tTo0RQAABBBBAAAG3AoRTt01DwRBAAAEEEEAAgfwECKf5tTk1RgABBBBAAAEE3AoQTt02DQVDAAEEEEAAAQTyEyCc5tfm1BgBBBBAAAEEEHArQDh12zQUDAEEEEAAAQQQyE+AcJpfm1NjBBBAAAEEEEDArQDh1G3TUDAEEEAAAQQQQCA/AcJpfm1OjRFAAAEEEEAAAbcChFO3TUPBEEAAAQQQQACB/AQIp/m1OTVGAAEEEEAAAQTcChBO3TYNBUMAAQQQQAABBPITIJzm1+bUGAEEEEAAAQQQcCtAOHXbNBQMAQQQQAABBBDIT4Bwml+bU2MEEEAAAQQQQMCtAOHUbdNQMAQQQAABBBBAID8Bwml+bU6NEUAAAQQQQAABtwKEU7dNQ8EQQAABBBBAAIH8BAin+bU5NUYAAQQQQAABBNwKEE7dNg0FQwABBBBAAAEE8hMgnObX5tQYAQQQQAABBBBwK0A4dds0FAwBBBBAAAEEEMhPgHCaX5tTYwQQQAABBBBAwK0A4dRt01AwBBBAAAEEEEAgPwHCaX5tTo0RQAABBBBAAAG3AoRTt01DwRBAAAEEEEAAgfwECKf5tTk1RgABBBBAAAEE3AoQTt02DQVDAAEEEEAAAQTyEyCc5tfm1BgBBBBAAAEEEHArQDh12zQUDAHJAQv5AAADiklEQVQEEEAAAQQQyE+AcJpfm1NjBBBAAAEEEEDArQDh1G3TUDAEEEAAAQQQQCA/AcJpfm1OjRFAAAEEEEAAAbcChFO3TUPBEEAAAQQQQACB/AQIp/m1OTVGAAEEEEAAAQTcChBO3TYNBUMAAQQQQAABBPITIJzm1+bUGAEEEEAAAQQQcCtAOHXbNBQMAQQQQAABBBDIT4Bwml+bU2MEEEAAAQQQQMCtAOHUbdNQMAQQQAABBBBAID8Bwml+bU6NEUAAAQQQQAABtwKEU7dNQ8EQQAABBBBAAIH8BAin+bU5NUYAAQQQQAABBNwKEE7dNg0FQwABBBBAAAEE8hMgnObX5tQYAQQQQAABBBBwK0A4dds0FAwBBBBAAAEEEMhPgHCaX5tTYwQQQAABBBBAwK0A4dRt01AwBBBAAAEEEEAgPwHCaX5tTo0RQAABBBBAAAG3AoRTt01DwRBAAAEEEEAAgfwECKf5tTk1RgABBBBAAAEE3AoQTt02DQVDAAEEEEAAAQTyEyCc5tfm1BgBBBBAAAEEEHArQDh12zQUDAEEEEAAAQQQyE+AcJpfm1NjBBBAAAEEEEDArQDh1G3TUDAEEEAAAQQQQCA/AcJpfm1OjRFAAAEEEEAAAbcChFO3TUPBEEAAAQQQQACB/AQIp/m1OTVGAAEEEEAAAQTcChBO3TYNBUMAAQQQQAABBPITIJzm1+bUGAEEEEAAAQQQcCtAOHXbNBQMAQQQQAABBBDIT4Bwml+bU2MEEEAAAQQQQMCtAOHUbdNQMAQQQAABBBBAID8Bwml+bU6NEUAAAQQQQAABtwKEU7dNQ8EQQAABBBBAAIH8BAin+bU5NUYAAQQQQAABBNwKEE7dNg0FQwABBBBAAAEE8hMgnObX5tQYAQQQQAABBBBwK0A4dds0FAwBBBBAAAEEEMhPgHCaX5tTYwQQQAABBBBAwK0A4dRt01AwBBBAAAEEEEAgPwHCaX5tTo0RQAABBBBAAAG3AoRTt01DwRBAAAEEEEAAgfwECKf5tTk1RgABBBBAAAEE3AoQTt02DQVDAAEEEEAAAQTyEyCc5tfm1BgBBBBAAAEEEHArQDh12zQUDAEEEEAAAQQQyE+AcJpfm1NjBBBAAAEEEEDArQDh1G3TUDAEEEAAAQQQQCA/AcJpfm1OjRFAAAEEEEAAAbcChFO3TUPBEEAAAQQQQACB/AT+P3qor0OLu2vtAAAAAElFTkSuQmCC;clipPath=inset(31.13% 0% 32.64% 0%);" parent="1" vertex="1">
          <mxGeometry x="-770" y="50" width="679" height="217.28" as="geometry" />
        </mxCell>
        <mxCell id="z6ySdCMU9EJMh0qq0b_l-1" value="" style="shape=image;verticalLabelPosition=bottom;labelBackgroundColor=default;verticalAlign=top;aspect=fixed;imageAspect=0;image=data:image/png,iVBORw0KGgoAAAANSUhEUgAAAeEAAAJNCAYAAAAGfM0GAAAgAElEQVR4Xu2dCZQW1bXvNyigouIUAUFbQSCiIiiDDCqDdkARnEDUQCIS4S7fdS2yvNyIF4fwJPcSr9zne1kXDDY3GI2hjQYFwWYyQjOJMqgoKmhDNyAgKlFm7Fe7dH85XV3dXfXVdE7Vv1wsu/urOmef367u33dO1Ve73uc7dlQSNhAAARAAARAAgdgJ1IOEY2eODkEABEAABEDAJgAJ40QAARAAARAAgYQIQMIJgUe3IAACIAACIAAJ4xwAAYMIHDlUSe+XHuNFLIOizifU7+jinsdTg0ZpH2c+bHBMmghAwmnKJsaSegLffv0d7dh8IrXrdnqqx/ru33ZTmyuOQsKpzjIGh2vCOAdAwDACkLBhCUO4IFAHAcyEcYqAgEEEIGGDkoVQQcADAUjYAyTsAgK6EICEdckE4gCBcAhAwuFwRCsgEAsBSDgWzOgEBGIjAAnHhhodgUBwAjpIuF+/1jRp0nTq1q1P8AHV0AJuzIoMLRrWjAAkrFlCEA4I1EYgKQmPHFlIXbv2pjFjxhMkjHMUBMIjAAmHxxItgUDkBPxImMX5yCO/o4KCNoHjUiUcuDEPDWAm7AESdkkFAUg4FWnEILJCwKuEV61aQiNG9KWhQ++liROn5fDwLLa8fIv9/aZNlVRW9jEVFralnj2vo9LSBfbPJkwYTbNmPW3vM3PmYnvZWSTMP5sy5SH757xxH7JNnjyTBg8enmuTf87tFhWVuP6stpxBwlk5ozFOSBjnAAgYRMCrhFmkvLFMWay8yc9YylOnTqLVq9+wZ8osYZEty3v8+FG0aNFmUr92W47mNt32ZdHff/+jtpDdZtDt2tWjkpKPap2hQ8IGnZQINRABSDgQPhwMAvES8CphEd1jj92Xu5bLQuTZrmw8SxUJi6hnz36W+J86e+XXvEiYZ8W8L/etbmPHPk4DBgyxZS+bSL8mepBwvOcVekuOACScHHv0DAK+CXiRMM9yeclYtpYtW9kzW54Jt2hRYN9cJZssR4uEg8yERcJuN26pfbOkIWHfqccBKSUACac0sRhWOgl4kTBLTq7PMgX1e3WWykvCvPEMVSTM37tdE+afLV++0Ja5SJb3VZejRcJyPZpflzcAPLseN26E3R9fp3a+GXBmCzPhdJ6/GFV1ApAwzgoQMIiAFwkbNJwaQ4WE05BFjMELAUjYCyXsAwKaEICENUkEwgCBkAhAwiGBRDMgEAcBSDgOyugDBOIjAAnHxxo9gUBgApBwYIRoAAS0IgAJa5UOBAMCtROAhHGGgEC6CEDC6conRpNyApBwyhOM4WWOACScuZRjwCYTgIRNzh5iB4HqBCBhnBUgYBABlvA71kOvmpzV0KCo/Yf69Z5DdOWN9alBo6pP3/LfEo4AAb0JQMJ65wfRgUAVAizh7Z+cSG27nJZqMu8t3UNtOx+FhFOdZQyOCUDCOA9AwCACWI42KFkIFQQ8EICEPUDCLiCgCwFIWJdMIA4QCIcAJBwOR7QCArEQgIRjwYxOQCA2ApBwbKjREQgEJwAJB2eIFkBAJwKQsE7ZQCwgUAcBSBinCAikiwAknK58YjQpJwAJpzzBGF7mCEDCmUs5BmwyAUjY5OwhdhCoTgASxlkBAgYRiFLC/fq1pkmTplO3bn18E5k6dRJVVJTRxInTqhw7e/aztGPHNhozZryvNlFP2Bcu7GwwAUjY4OQh9OwR8CNhlmp5+RYb0qZNlbRq1RKaM+eFaqKMkiIkHCVdtJ0GApBwGrKIMWSGQG0S5tlop07d7Zmsm3CdUh45stDmVlq6gO6++5c0Y8aTVFLyEc2bV0zFxc/YAm/ZshUtWrSZyso+psLCtjnOvF9BQRv7e3lt7NjH7f5HjOhr/3zmzMW0c2c5jRs3Inccvxng/UeO7J97g8D7OWffmAln5pTO/EAh4cyfAgBgEgGvEuYxsXSHDLkntxTsFDNLuGvX3rnXef+iovm2hJs3P5cGDx5uybKQRo9+0J5Bd+7cy/5Zu3b17Jm1uvEbAN74OHX5WZ0Jy5L1qFEP0GOP3Wf1VUL8+po1y6rNziFhk85KxBqEACQchB6OBYGYCdQkYRajbD17XmcLjjcW35QpD9kzXJ6VqsvRIliZhbpJeMKE0TRw4DBau3ZFTsy1SZiv/UqfLGpVwjwDZvk+8sjvchKuaYkcEo75xEJ3iRGAhBNDj45BwD8BPzNhaZ2lyDPUZs1a5i1hFrUsZ/Oys/NGK5kJy89Frjx7lpmxzHrVmTAk7P8cwBHpIgAJpyufGE3KCXiVMMtNrs3KdV1GIzNmvg47bdpv7KVmLzNht2u7NS1HyzXgyZNn2ru4XROW5WhIOOUnLIZXJwFIuE5E2AEE9CHg5+7oqKKWJep8PsrkNSYsR3slhf1MJwAJm55BxJ8pAklJWK7zMmz1mnNU8CHhqMiiXd0IQMK6ZQTxgEAtBJKScNxJgYTjJo7+kiIACSdFHv2CQB4EIOE8oOEQENCYACSscXIQGgg4CUDCOCdAIF0EIOF05ROjSTkBSDjlCcbwMkcAEs5cyjFgkwlAwiZnD7GDQHUCkDDOChAwiAAkbFCyECoIeCAACXuAhF1AQBcCkLAumUAcIBAOAUg4HI5oBQRiIQAJx4IZnYBAbAQg4dhQoyMQCE6AJfx2SSWdckbD4I1p3MI3ew/RlYOOowaN/lGYQuNwERoI5E0AEs4bHQ4EgfgJYCYcP3P0CAJREoCEo6SLtkEgZAKQcMhA0RwIJEwAEk44AegeBPwQgIT90MK+IKA/AUhY/xwhQhDIEYCEcTKAQLoIQMLpyidGk3ICkHDKE4zhZY4AJJy5lGPAJhNgCW9cXp+ann+iycOoM/ZtH35DXa+vj7uj6ySFHUwnAAmbnkHEnzkCu7cey435wMGDVFpaSt26daVTTj7FSBYVFRW05dNPqVevnlTP+k+2H513nJHjQdAg4IcAJOyHFvYFAY0IHDt2jGa/8goVnHceXXHFFRpF5j+UpUuX0rf791P/n/zE/8E4AgQMJgAJG5w8hJ5tAsV/+Qs1b9aMevXsmQoQJQsWUIMGDahP796pGA8GAQJeCEDCXihhHxDQjMCKlSvpq6++ogH9+2sWWbBwZs+eTeeccw516dIlWEM4GgQMIQAJG5IohJktAu0vaU4b39vhOugPPviANmzYQDfffDM1bJiux1fuP3CAWMSXdehA7du3z1bSMdpMEoCEM5l2DFpnAnPnvkQrVy2jib9+slqYf//73+mFP/+ZbrzxRmrWtKnOw8g7tt27d9PLf/0rXT9gALVs2TLvdnAgCJhAABI2IUuIMXMEJjz8S1cJ83XTM844gzobfiNWXQndvGUL8c1at1iz/VNPPbWu3fE6CBhLABI2NnUIPM0E3CS8detWWmZ9HOnOO+5I89BzY1u7bh2VlZXRTYMHZ2K8GGQ2CUDC2cw7Rm0ggZdefpkuufhiatu2rYHR5xfygoULqXHjxtSje/f8GsBRIKA5AUhY8wQhPBBgAtu2baPlK1bQ7UOHZgrI4cOHqfjFF62HkXSjC1u3ztTYMdhsEICEs5FnjNJwAvPmz6fzrIdyXJzBO4bLy8vp9ZISexn+xBPT/bhOw09ThJ8HAUg4D2g4BATiJPD1118TL0Xf/fOfx9mtVn2tsFYBDlmz4t7XXKNVXAgGBIISgISDEsTxIBAxgbffeYe+/fZbuvqqqyLuSd/m+RGdzz3/PPXr25datGihb6CIDAR8EoCEfQLD7iAQN4FZxcX2oyn5SVJZ3jZt2kTvb9xof2wJGwikhQAknJZMYhypJLBnzx7izwZn5WNJdSXxRet52V2tR1ry9XFsIJAGApBwGrKIMaSWwLr162nfvn2ZXopWk/ve++/T9u3bqfC661KbcwwsWwQg4WzlG6M1jMCcuXOp/UUXUatWrQyLPJpwjx49SkUzZtgrAyeffHI0naBVEIiRACQcI2x0BQJ+CFRWVtLTv/+9fVd02go1+OHg3HfhokX2zVkX/fjHQZrBsSCgBQFIWIs0IAgQqE6gwlp2Xb16Nd18003AoxB47733aLd1rRx1h3FapIEAJJyGLGIMqSSwnq8HW1WTrurVK5Xjy3dQfLMaP87yjmHD8m0Cx4GANgQgYW1SgUBAoCqBRday6zlYdq12WvBnhn//zDM05t57ccqAgPEEIGHjU4gBpJUA1w2+tl8/Ouuss9I6xLzHxTdn8UwYj7HMGyEO1IQAJKxJIhAGCKgE+C7g6TzbGz0aYFwI8NOzbrj+ejrttNPABwSMJgAJG50+BJ9WAnzj0ZIlS2jokCFpHaLvcfES9HXXXkvnFxQQrxLwZ4VPOukkeur//l/6+c9+RmeffbbvNnEACCRNABJOOgPoHwRcCGzesoU+/ugj6t+/P/j8QOC5556jvy1dSv9833324ysvv/xyKrYe6bl7926a/B//gY9x4UwxkgAkbGTaEHTaCaxdt472799PPXv0SPtQPY+PawtP+vd/p0+tNyhXdO5MXOKQBTz+V7+iNm3aeG4HO4KATgQgYZ2ygVhA4AcCf3vzTTrjjDPo0ksuAROFwCebN9Pk3/7WfpTnwYMHadjtt9v/sIGAqQQgYVMzh7hTTWDOnDl0aYcOVIBCBdXyPH/+fJr69NPUvn17evjf/o1OOOGEVJ8LGFy6CUDC6c4vRmcogef/9CcaMGAAnR7C3b9HDlXS4YOVhpKoHvbhI0eIrw/zE7POP//81IyLB9K4Sf1UjQeDqZsAJFw3I+wBArETeKaoiH56113UqFGjwH2vW3yUGqZstlj53XdUr366hLVr637qPaxh4HyjAbMIQMJm5QvRZoBA2E+EWrf4GF3xkxYZIGf2EN9+fSd17Gv2GBC9fwKQsH9mOAIEIiXw92++oZdffplGDB8eSj+QcCgYI28EEo4csZYdQMJapgVBZZnArl27iO+OHnLbbaFggIRDwRh5I5Bw5Ii17AAS1jItCCrLBMrKyuhdq1zfwBtuCAUDJBwKxsgbgYQjR6xlB5CwlmlBUFkm8OGHH9J2q5Zw377hXCBMo4RHjiykwYOH2//SskHCacmkv3FAwv54YW8QiJzA+g0b6O9WHeFePXuG0hckHArGyBuBhCNHrGUHkLCWaUFQWSbw1po1VFlZSV27dAkFg0kSXrVqCc2Z8wJNnDgtlLGb1AgkbFK2wosVEg6PJVoCgVAIlC5fTic3bkyXXXZZKO2ZJGFeZi4tXUAlJR9RQUEb4u+7du1NY8aMp9mzn6WnnnqU7r//URo3bgRNnjzTXo6WYxiWHNevX2vr2dJbbH49e15HRUUlobCMshFIOEq6+rYNCeubG0SWUQJL3niDmjVtShdddFEoBEyRcFnZx1RY2JaGDr2XWrQosMXLM+Px40fRokWbbdnKdWD5mgGxnFmy/H/5miU8adJ06tatD6lfhwI0okYg4YjAat4sJKx5ghBe9gi8XlJCF7ZuTa2tf2Fspkh46tRJVFFRRgMHDqMRI/rSpk3fP2pThMuzYJax+rMdO7bZx/DytSpsp4R59qz7TVyQcBhnu3ltQMLm5QwRp5zAq1bxho7WUvS5554bykhNkXC7dvWqjFeWm2UZesiQe+zZsSphrzNhSDiUUwmNREAAEo4AKpoEgSAE/vLSS9Z1zJ72knQYmwkS5llwcfEzuZmu83ue2cosWJVwbdeE1eVoSDiMMwltREEAEo6CKtoEgQAE/jxrFvWzPiN81llnBWjlH4eaIOFQBmp4I1iONjyBeYYPCecJDoeBQFQEuIzh9VYZw9NCKGPIMULCUWUq3HYh4XB5mtIaJGxKphBnZgjMfPZZuuXmm+nkk08OZcyQcCgYI28EEo4csZYdQMJapgVBZZlA0YwZdMcdd9CJIdUAhoTNOJsgYTPyFHaUkHDYRNEeCAQk8PTvf093//zn1KBBg4AtfX84JBwKxsgbgYQjR6xlB5CwlmlBUFkm8N9Tp9KY0aOpXr2qH9nJlwkknC+5eI+DhOPlrUtvkLAumUAcIGAROHbsGE1/5hkafe+9ofGAhENDGWlDkHCkeLVtHBLWNjUILIsEDh85Qn/4wx/oF6NGhTb8dxYeo0uvbhZae2goGgLvvrmLLr82nNWPaCJEq1EQgISjoIo2QSBPAgcPHqTnnn+e7hk5Ms8Wqh+2+rWjdMrpJ4XWHhqKhsCe8v101ZDjo2kcrWpLABLWNjUILIsE9u/fT7OKi+nnP/tZaMPHcnRoKCNtCMvRkeLVtnFIWNvUILAsEvjmm2/opZdfphHDh4c2fEg4NJSRNgQJR4pX28YhYW1Tg8CySGDfvn30yquv0k/vuiu04UPCoaGMtCFIOFK82jYOCWubGgSWRQJfffUVvTZvHt1pPawjrA0SDotktO1AwtHy1bV1SFjXzCCuTBL4Yu9eWrBgAQ27/fbQxg8Jh4Yy0oYg4Ujxats4JKxtahBYFgns2bOHFi9ZQkOHDAlt+JBwaCgjbQgSjhSvto1DwtqmBoFlkcDu3bvpjb/9jYbcdltow4eEQ0MZaUOQcKR4tW0cEtY2NQgsiwR27dpFby5dSrfdemtow4eEQ0MZaUOQcKR4tW0cEtY2NQgsiwR2fv45lZaW0q233BLa8KOS8KpVS2j8+FG0aNHm0GLNckOQcDazDwlnM+8YtaYEduzcSStWrLDrCYe1eZUwS3XEiL52t0OH3ksTJ06jCRNG08CBw6hbtz5hhZNrh9vmPnibPftZatasZST9hB54RA1CwhGB1bxZSFjzBCG8bBHYvn07rVq9mm6+6abQBl6bhEeOLKSiohK7L6dwnVJmGU+b9htrpr7AlvTy5QupoKC1fTy3wz/nbezYx2nMmPE0deokmjLlIftnPXtel+tHBtavX2u6//5HafDg4fbxXbv2rnbc5Mkzc6/zcdxHSclHNH36EzRr1tN2U7wPC9z5BiI0gDE1BAnHBFqzbiBhzRKCcLJNoKKigtasWWOJZ3BoILxKWKTLkisoaFNNzPL6pk2V9mv8PUuZJcxC5WXpsrKPLaH2t79u164e8b48y12zZllu1isDY/HyJsf36HFtlX3U9lVJqz93gyT9hgYwpoYg4ZhAa9YNJKxZQhBOtgmUl5fTO++8Q4MGDQoNhJuE1VkqdzRz5uLcUjALVWa46uzYKT83CXNbImT5v5uE+di1a1fQ6tVv2DNd3ng/FrI6A5cZNEt49OgH7Rh5vx07ttmzZnVj+combxRCgxhDQ5BwDJA17AIS1jApCCm7BLZZEl67di0NuvHG0CB4nQmrHYpAg0hYlak6u+Z++E1A8+bn2l2OGzfCnjFzX6NGPZCbSbNsRcyqhN1mwhInL0sXFra12zNtg4RNy1g48ULC4XBEKyAQCoFt27bRunXr6MYEJMwik+uscl2XJciSbNmyFU2aND23/MyDrWsmrF4nlhu9BJIIl5e95QYtETMvXXMcct25qGg+PfbYfbmZMLehxsrXhEXmHCcva3fu3Cs3ww4lMTE0AgnHAFnDLiBhDZOCkLJLwJbw+vV048CBoUHwend0aB26NCQz6yj7ML1tSNj0DOYXPyScHzccBQKREEiThFm85eVbbE5yl3Mk0FLSKCSckkT6HAYk7BMYdgeBKAmkScJRckpj25BwGrNa95gg4boZYQ8QiI3AVms5en0Kl6NjA2hwR5CwwckLEDokHAAeDgWBsAls3bqVNrz7Lg284YbQmtbhmnBog0lxQ5BwipNby9Ag4WzmHaPWlAAkrGliYggLEo4BsoZdQMIaJgUhZZcAJJzd3EPC2cw9JJzNvGPUmhKAhDVNTAxhQcIxQNawC0hYw6QgpOwSKLOuCb9nXRO+AdeEM3cSQMKZS7k9YEg4m3nHqDUlUFZWRu+9/z7dcP31oUUY1Y1ZSdUT5idxPfLI73JFJlRQdRV3CA1qBA1BwhFANaBJSNiAJCHE7BBIUsKm1BOGhLPz+5CFkULCWcgyxmgMgbglrGM9YS6HyEUYeJNnTqs/459LQQh5Khc/M5rLJzpnwlJZya2esW4nBWbCumUknngg4Xg4oxcQ8ESAJfy+tRx9fUzL0aqEdaknrFZMkq+5brGUMpSZ8Lx5xXYlJi6FKOUNO3XqnisywUUepJCD+rWnRCSwEyScAHQNuoSENUgCQgABIfCZJeGNGzfS9QMGhAbFtHrCarEHKVE4fvwoe6bLm0h4+vQnclWfZNY8cOCwnITVZWup0CS1i0ODG2JDkHCIMA1qChI2KFkINf0EPvvsM9r4wQeRS1hIqjNhlW6S9YS5bKHceMVxcCnDkSP726UUu3Xrk5OwOhOW2NXlaLUWsjq71vUsgoR1zUy0cUHC0fJF6yDgi0BcM2E3CetST7hZs5Y0YkRfO0S5JqzeNMY/d14Tdv5syJB7aMCAIblry7gm7Os0xM4xEoCEY4SNrkCgLgJxS7iueMJ6HfWE6yaJmXDdjNK4ByScxqxiTMYSsCUc441ZUYJCPWF/dCFhf7zSsjcknJZMYhypIBD33dGpgJaSQUDCKUmkz2FAwj6BYXcQiJJA3J8TjnIsaNsfAUjYH6+07A0JpyWTGEcqCEDCqUhjXoOAhPPCZvxBkLDxKcQA0kQAEk5TNv2NBRL2xyste0PCackkxpEKApBwKtKY1yAg4bywGX8QJGx8CjGANBGAhNOUTX9jgYT98UrL3pBwWjKJcaSCgF1P+L33jChlmArgGg0CEtYoGTGGAgnHCBtdgUBdBJKUsFQq2rSpsq4wq7zOx/GjJouKSnwdF2Rnro4kT80K0k6QY8MuCgEJB8mGucdCwubmDpGnkECSEq4Lp1QqGjNmfN4SNqGQQl0c5HVI2Csp7FcbAUgY5wcIaETAlvC779INN9wQWlRuVZSkcbWAA39dVrbZrlYkX5eXb8k9v1lq80rtXmnDWet35szFdqEF3l9m1TJzlTrBNT3Luaa2+OlbBQWtqbR0gR3PrFlP222zCHnj7/nny5cvJI558uSZuRKH48aNsPeRn/HYeOO2eDYtMTnH5UwAH8fH8MZjnDPnhVypRPU1bpM3aVftV453W23ATDi0U96ohiBho9KFYNNOYKsl4Q2WhAcmIGEWIFcrEglLJSORqZeZMBdakLKDTgmzeOqaCatL22o8LOH773/UFitv0jZLuEWLAuLZuVRc2rmzPFfOUH1mtXzNwuzatbd9jLrVVmmJx75mzTKaOHFa7hC3mTCPjzeua8ySlv1VdsxIfU0ahITT/tvtPj5IOJt5x6g1JRCXhFkWU6Y8lKPAMzuuXuQmYZGXFwlzg7J/UAmrbYlgCwraVJMw1xDmmbf0KyLnNxEyG5WB8iyVr1+PHv2gfQxvzhmu/Fw9RdzePKgSVnmOHfu4LXjmxbNw7pPLLqq83VYCIGFNfykjDgsSjhgwmgcBPwTikrDEpC5H1zQT9iNh5+yVZ9XqDV9BZsJcV9iPhPlGMbfqTeqMV31jwftKzWJnzmqbCXfseGXuxjR1Zs5tyBsCnsHv2LGt2uxb7QcS9vObkp59IeH05BIjSQGBrdu20YYNG7RajlZnmDKzVO9Mruk6rnO2zcvRal1gt+uitV0TzkfCMhvlU0NqE6sSVvvjGWxFRVmVJWf1lHLOmPk1rnvMLHgFga9FcxvFxc/YMpeayDIzrmvGDQmn4Bc4jyFAwnlAwyEgEBWBbZaE161fTzcOHBhaF7XdmBVaJyE1lMTHnUIKPXAzkHBghEY2AAkbmTYEnVYCWZKwOjOUfM6YUULTp/821s8cO88luQtcfl7XXdNhnYuQcFgkzWoHEjYrX4g25QTKy8vpnbVradCNN4Y2UpNmwqEN2sCGIGEDkxZCyJBwCBDRBAiERQASDoukee1AwublLIyIIeEwKKINEAiJQEVFBb399ts0aNCgkFokwkw4NJSRNgQJR4pX28YhYW1Tg8CySIAlvMaS8GBIOHPph4Qzl3J7wJBwNvOOUWtKYPv27fTWW29ZT4YaHFqEmAmHhjLShiDhSPFq2zgkrG1qEFgWCWzfsYNWr1pFN910U2jDh4RDQxlpQ5BwpHi1bRwS1jY1CCyLBHbs3EkrV66kmyHhzKUfEs5cyrEcnc2UY9Q6E9j5+edWJaDldMvNN4cWJmbCoaGMtCFIOFK82jaOmbC2qUFgWSTwuSXhZaWldOstt4Q2fK8SVp/x7KfzpJ9yxY+m5H/8rGiTN0jY5OzlHzsknD87HAkCoRPYtWsXvbl0Kd12662hte1VwnV16LWKUm3t1FXAgY91K7pQV2w1vR5mW/nG4PU4SNgrqXTtBwmnK58YjeEEdu/eTW/87W805LbbQhtJbRJWqyjx12Vlm3P1hPlrLkoghQ/kcY7OxzjWVHTBWcqQCx1IAQi3Un48YLXow+TJM+3KQ7xxaUC1Vu+0ab+h0tIFdmyzZj1t/3/UqAdy7fOxXP+XX+ONSzVynWEuLcibFFUIDXIIDUHCIUA0sAlI2MCkIeT0EtizZw8tXrKEhg4ZEtogvUq4plKGIlMvM2GukjR+/Chb5PnUE3bOhEW8TglzhSKpwiRlBrmu8Jw5L1SpguQ2E1bHGRrkEBqChEOAaGATkLCBSUPI6SXwxRdf0IKFC2nY7beHNkg3CTvLDPJMsVmzlnZJPhYoz4ofeeR3dv1eP/WEVYlGKWGeCcs1YLXWr5QulFKLqoTVGXtcRRn8JBES9kMrPftCwunJJUaSAgJffvklzX/9dbpj2LDQRhN0JuxHwuos01mHmGeufq8Jq7PvCRNGU4sWBdSpU3eqScIMTb1RTJWwvLHgZWmZrYcGOYSGIOEQIBrYBCRsYNIQcnoJfP311zRn7ly66847QxtkWBJWZ5Iy0xTpybVe/p5n1d269alyfZd/zhLm5Wopdi/Lyc6BsmzlOu/EidPsZW3Z+FpuTRLm5WhpW675SrlE/p63KVMeIr4ezdvo0Q/aceqyQcK6ZCLeOCDheHmjNxColcC+ffto9oY8dm8AACAASURBVCuv0PCf/jQ0UmHdHR1aQGjIlQAknM0TAxLOZt4xak0JfPPNN/TSyy/TiOHDQ4tQVwnLLFUdqDrDDg2AIQ1BwoYkKuQwIeGQgaI5EAhCYP/+/TSruJh+/rOfBWmmyrG6Sji0AaakIUg4JYn0OQxI2Ccw7A4CURI4cOAA/emFF2jk3XeH1g0kHBrKSBuChCPFq23jkLC2qUFgWSRw6NAheva552jUyJGhDR8SDg1lpA1BwpHi1bZxSFjb1CCwLBI4evQoFc2YQff+4hehDR8SDg1lpA1BwpHi1bZxSFjb1CCwLBKorLQ+SzttGv3TmDGhDR8SDg1lpA1BwpHi1bZxSFjb1CCwrBL4b0vCo62ZcP369UNBAAmHgjHyRiDhyBFr2QEkrGVaEFSWCTz9+9/bN2Ydf/zxoWCAhEPBGHkjkHDkiLXsABLWMi0IKssEnikqop/edRc1atQoFAxrXj9KF3Y6K5S20Eh0BD5+50vq0v8fTweLrie0rBMBSFinbCAWELAIzPif/6Hbhw6lk046KRQeLOGmBU1CaQuNREdg24f7qMdNx0XXAVrWkgAkrGVaEFSWCTz7xz/S4MGD6dRTTgkFA5ajQ8EYeSNYjo4csZYdQMJapgVBZZkAP6zjJ4WFdMYZZ4SCARIOBWPkjUDCkSPWsgNIWMu0IKgsE3jxxRfp6quvprPPPjsUDJBwKBgjbwQSjhyxlh1AwlqmBUFlmcBfZ8+mrl260DnnnBMKBkg4FIyRNwIJR45Yyw4gYS3TgqCyTIDrCXe49FI677zzQsEACYeCMfJGIOHIEWvZASSsZVoQVJYJzH/9dWrbpg21atUqFAwfvX2M9n+dro++8DO2w/oIVyiQQ2jk26+PUs+bG4bQEpowiQAkbFK2EGsmCCxevNheiv7xj3+cifHmM8gX/vxnuu666+jMkG5eyycGHAMCYRCAhMOgiDZAIEQCy0pL7Y8ndejQIcRW09UUJJyufGZ5NJBwlrOPsWtJYPVbb1G9evWoS+fOWsanQ1As4UJrJhzWx7h0GBNiyCYBSDibeceoNSawfv16+ubbb6lnjx4aR5lsaPxZ6v4/+QmdfvrpyQaC3kEgIAFIOCBAHA4CYRP44IMPaOfnn1Of3r3Dbjo17T33/PN0w/XX02mnnZaaMWEg2SQACWcz7xi1xgS2fPopbdq0iQb0769xlMmGNvPZZ+mWm2+mk08+OdlA0DsIBCQACQcEiMNBIGwCO3fupOUrVtiSweZOoGjGDLrzjjvohBNOACIQMJoAJGx0+hB8Ggns27ePXnn1VbucIbbqBCorK+m/p06lfxozxr6BDRsImEwAEjY5e4g9lQSOHDlC//OHP9AvRo1K5fiCDgpvUoISxPE6EYCEdcoGYgGBHwj8fvp0+tmIEdSwIZ6g5Dwpyisq6O2336bBgwbhfAEB4wlAwsanEANIIwH7YRTXXktnnnlmGodX55jaX9KcNr63w3U/vnt8h3XdvG+fPnW2gx1AQHcCkLDuGUJ8mSTw2muv0UXt29MF55+fufHPnfsSrVy1jCb++knXsa9evZrq169PnfEwk8ydG2kcMCScxqxiTMYTWLp0KTWxPgPL1ZSyuE14+Jc1SnjhokV0bsuW1K5duyyiwZhTRgASTllCMZx0EFi/YQPxDUhX9eqVjgH5HEVtEn75r3+lbt260TnNm/tsFbuDgH4EIGH9coKIQIC2lZfTO++8g5uPHOfC4cOHiT8jfO8vfmEvSWMDAdMJQMKmZxDxp5LAt9azo2cVF9PdP/+56/h6XX0p7d27p8abl1IJxRoUP01s48aNNPCGG9I6RIwrYwQg4YwlHMM1hwB/VvjWW26hU6yyhti+J/Cmda381FNPpY6XXQYkIJAKApBwKtKIQaSRwLz586nNhRfShdY/bN8T4KVofmPSpEkTIAGBVBCAhFORRgwijQTWrl1L3+7fT7169kzj8HyPafPmzfS+tRQ96MYbfR+LA0BAVwKQsK6ZQVyZJ7B7927ij+PcMWxY5lkwgPmvv04F551HF110EXiAQGoIQMKpSSUGkkYCz/7xj3T9gAGZfXKW5HTvl1/S7Nmza7xRLY25x5iyQQASzkaeMUpDCXBJw+OOO466de1q6AjCCXvZsmXUwHqOthuH2h5xGU7vaAUEoiMACUfHFi2DQGACX+zdS6+88kpuBjjh4Yft5en21iMt07wtXrKE3n//ffrn//W/aL91XfwPM2fSiOHDqXHjxlWGXdcjLtPMCGNLBwFIOB15xChSTOB161poixYt6PTTT6eJjz9O//ov/0IXXHBBikdMxDelPfX//h/9nylT7M8FHz16lHrV8PSw2p6ulWpIGFwqCEDCqUgjBpFGAhXbt1Ozpk3p8127aIk1M2zUqBHNmTuXnvjtb+mslFdX+tR6KMfDjz5Ko0aOpA82baI777iDTjzhBPspYvzISnWDhNN49mdnTJBwdnKNkRpE4O/ffEP/+qtf0RHrMY2dOnWyBcwfz+Hvn/zP/6QGDRoYNBr/oe754gt6xJIwP6ikXdu29LX1HG0uYXiCxeH//Nd/+W8QR4CApgQgYU0Tg7BA4EvrjuC5VknDZaWltHXrVlvErVu1smfCad/4GdEPWMvun1ifDW5o3ZDFMh5y2210bb9+dNJJJ6V9+BhfhghAwhlKNoZqJgEW8CuvvkpvvvkmdejQgf7toYfMHIjPqMf967/S7j176Jqrr6YB/ftTU2tpHhsIpI0AJJy2jGI8vgm8X3qU6ln/6b7xzJiXqc8791zdQw0lvs1bttg3o51h/dN9q6RKurjn8bqHifg0JAAJa5gUhBQvgXVL6tGlV/8o3k7RW6oIvFOyk7oMQGnFVCU1psFAwjGBRjf6EmAJX1GIpU59M6R/ZG+/vpM69tU/TkSoHwFIWL+cIKKYCUDCMQNPYXeQcAqTGtOQIOGYQKMbfQlAwvrmxpTIIGFTMqVfnJCwfjlBRDETgIRjBp7C7iDhFCY1piFBwjGBRjf6EoCE9c2NKZFBwqZkSr84IWH9coKIYiYACfsHvmrVEhoxoi9t2lTp/+AUHgEJpzCpMQ0JEo4JNLrRl0AWJdyuXT0qKfmICgraUFnZx1RY2JZmzlxsPZe5j6dEQcJVMUHCnk4b7ORCABLGaZF5AlmU8MiRhdS1a28aM2Y8TZ06iVavfoNGj36Qxo8fRYsWbSZVsiJpPlF69ryOiopK6nw9aycVJJy1jIc3Xkg4PJZoyVACWZQwS1aE269fa5o0abqdPTcJ8+v33/8oDR48nETenTp1zy1H88/4NXldvjb0dMgrbEg4L2w4yCIACeM0yDyBLEqYk85y7dHjWlq+fGFu9usmYV66VrexYx+3Kjv9Q8IicV7KnjBhtFX7uMCeYWdpg4SzlO1wxwoJh8sTrRlIIKsS5mXoKVMeIpYqS1OdHavL0apkJb3q65gJE0HCBv7iaxIyJKxJIhBGcgSyKmEmzrNc9Q5nFm55+ZZcMvg1ES7/sGXLVvasWa4TT548kzp2vNK+sYs3uWacXDaT6RkSToZ7GnqFhNOQRYwhEIEsSzgQOBycIwAJ42TIlwAknC85HJcaApBwalKZ2EAg4cTQG98xJGx8CjGAoAQg4aAEcTwkjHMgXwKQcL7kcFxqCEDCqUllYgOBhBNDb3zHkLDxKcQAghKAhIMSxPGQMM6BfAlAwvmSw3GpIQAJpyaViQ0EEk4MvfEdQ8LGpxADCEoAEg5KEMdDwjgH8iUACedLDselhsCbxUepaUHj1IwHA4mfwJ7yb6nnLcfH3zF6NJ4AJGx8CjGAoATeWUh0Sa+zgjaD4zNM4L2lu+ny66o+3jPDODB0HwQgYR+wsGs6CWA5Op15jXNUWI6Ok3a6+oKE05VPjCYPApBwHtBwSBUCkDBOiHwJQML5ksNxqSEACacmlYkNBBJODL3xHUPCxqcQAwhKABIOShDHQ8I4B/IlAAnnSw7HpYYAJJyaVCY2EEg4MfTGdwwJG59CDCAoAUg4KEEcDwnjHMiXACScLzkclxoCkHBqUpnYQCDhxNAb3zEkbHwKMYCgBCDhoATNP37kyEIaPHi4/U+2qVMnUfPm51b5WU0jhYTNPweSGgEknBR59KsNAT8SLiv7mEaO7E+LFm3WJv5Vq5bQnDkv0MSJ07SJKZ9A+vVrHRtXL4L1so+MExLOJ+M4hglAwjgPMk+gJgnPnv2szcY5O5oy5SGaOXMxdevWx36dZ1GlpQvsrzdtqiSW4rRpv7F/NnTovbYc27X7/mlKPXteR0VFJcR/4Lkd3lq2bGXLh3/G25gx46t87Wxf3gjwvgUFramsbDOVl2+p0v+IEX3t78eOfdxuT93U9kpKPrLaaFMlHhkbS5Hb53HwuNzGKf1w+9zW9zy+f5OivmFhluPGjbBfnzx5ps2U2+ON27/77l/SjBlPVnndyazKIH74xo0j91tY2LYKb+6f/zn74nxwLBybOm7hKbFKLJIrZyyQsFt28DMvBCBhL5SwT6oJ+JEwi2P06AdzM0/+w75jxzZbdDIjHThwGLGcWFy8TZgwmjp37mX/sZev+RhZ6hT5CmRVwryPs/1Rox6wJSMCdc6EWZ5FRfNtuapfO5Mo/Q4YMIQee+w++80BbzIj5f/ff/+jdtw8zjVrltlvKORrHqfMwOWNxyOP/M5VwuosV75mll279s69SVD3cWOmvhmSsaizVfVNjLwu41+3biU99dSjuZm2c5YreV27doV9qOTAuRwt+8kbMOkHEk71n4hIBwcJR4oXjZtAwE3C/MdbZkMy+1GFK3/c580rzs1oeaw8s2JJ80xYpMZ/uFlOMuMUscofeJFoixYFVQQg7GTGLO2rouOfuUlYlsvVvlVxSZs8U+7Uqbv9pkHd+A2EKnBVWuqbDXUZXPZ3zoT5DYHMTKUPfgPB4mdWIjRVwm7M6pKwykHNH/fFEpY3ERxDTRLm8fCbC45J3UddBVBXQSBhE37D9Y4REtY7P4guBgJeZ8LqH2IOiwWmzlQlVJkVioR5Vid/2NUZl3MmrLbFx7CU3dp3XpeuTcK8jCozco6Pj5VZr/ThnAnLOFQJq29AZMbJ8nbOhHnMIlOOa/z4Ufbs0+16r3NW6ZwJO5k5Z59OmaorCsKWx+9XwsxdnQlzP7IawTFOmjQ998YBEo7hFzTlXUDCKU8whlc3AS8SdoqVWxXBOWdJ/Jo6E3a7Rul2LVPalIjleq6z/WbNWla7OUyuWfIsbefO8tz1V7drwjJL5NeKi5/JXY9WZ8csIedStjq7lGvfzmvCPNtnuc+a9bQ9DHUVQa4Jy3Vyp4TlOH5dlty5DbmO7pZJN46cK/WaOB/HUlZnwuo+cr1bZuXCko/ja8IdO16Zm8kzs4qKsmo3wWE5uu7fM+zhTgASxpmReQJ+7o4OC5afO2/D6jPsdnS4K1sXjpBw2GdXdtqDhLOTa4y0BgKQcH6nRpwSVlcTJFqeIfONXV4/y5vfKL0dBQl744S9qhOAhHFWZJ5AEhLOPPSUAYCEU5bQGIcDCccIG13pSQAS1jMvJkUFCZuULb1ihYT1ygeiSYAAJJwA9JR1CQmnLKExDgcSjhE2utKTACSsZ15MigoSNilbesUKCeuVD0STAAFIOAHoKesSEk5ZQmMcDiQcI2x0pScBSFjPvJgUFSRsUrb0ihUS1isfiCYBApBwAtBT1iUknLKExjgcSDhG2OhKTwKQsJ55MSkqSNikbOkVKySsVz4QTQIEIOEEoIfUpVo5qaYKR/l2pT4vu642IOG6COH1mghAwjg3Mk/Aj4SdxRN0gBfnk6uiHK9bkYe6+oOE6yKE13UnAAnrniHEFzkBLwUcJAgpGKCWs3Mrds8FHLiAvBQrcBaodys8oArFKRduizcuNiBvBPj7goLW1vebc2UXnYUV3Ao4qPFKTWI1HrW4PbfPfUuRAzUOtQgCx8Jt8eYsZchVlHhWKQUcuCgClyXkOHjjNu+++5c0Y8aT9vfyupOZ24lQk4TdxqMWlqitSITKR/hJLFKQwhkLZsKR/5qmtgNIOLWpxcC8EvAjYVnylBJ+6pKlWmeXq/hICUG3AvVcGs9ZylDilTJ6/L1aylDalwpDIlC3UoZcw5crGjkrIalMRGDOUoYyI+X/33//o7YweZxShUi+5lKDzlKGaq1jddVAneXK18ySn/3M4+XNWcqwc+dedt8qP2dO3STMVaakXKO0yzzkzYF6jLQnnNS6w27L0TUteUPCXn/bsJ+TACSMcyLzBNwkrJbtU8vxqXVl+Q/7vHnFJCUAGSQXFeCSeGopQ7cC9aqERaJcx5Y3VcL8vbN9VXT8em31hNW+JdHqLJFnelwXWC1JyPvxGwhV4Gq1IvXNhkjYTXYiYeZUWNi2ynnGbyBYlFI+0ClhN2YsZC8S5n1qGg/PylUJq3nmmDif8uZIlbCznKSztjEknPk/I3kDgITzRocD00LA60xY/UPMY2eBqTNV4eGsPcwzOWeB+rVrV1SbCatt8TEsZbf2ndela5Ow1DyW2PhYmSVKH86ZsOyrSlgVkkiM5e2cCRcVleRmtBzX+PGj7HrFbtd7nbNK50zYycwpPo7Ty0xYxqMuifObDPWNBXMSCUu9YBmzmgOOcdKk6QQJp+W3P/lxQMLJ5wARJEzAi4SdYuWQRXDOWRK/ps6E1TJ8UqDe7ZqwtCk45Hqks31ebpWlVdlXrlny9dydO8tz11/drgnL7I9fKy5+xpakc3bMs3HnUrY6a3Ree+Y4ZHlcvfaqriLINWG5Tu6UsBxX2/Va56kibNVxi2BlBUEYqPE7VwD4e95k3OXlW+zv+ef8JkVm8vy9SFqNBTPhhH+JDe4eEjY4eQg9HAJ+7o4Op8fvZ3A61MENMh5T78pWVwOCjB8SDotettuBhLOdf4zeIgAJ53caxClhdTVBopVVBa/Ry2oB76/e3e71+Nr2w0w4DIrZbAMSzmbeMWqFQBISRgLSRQASTlc+4xwNJBwnbfSlJQFIWMu0GBUUJGxUurQKFhLWKh0IJgkCkHAS1NPVJyScrnzGORpIOE7a6EtLApCwlmkxKihI2Kh0aRUsJKxVOhBMEgQg4SSop6tPSDhd+YxzNJBwnLTRl5YEIGEt02JUUJCwUenSKlhIWKt0IJgkCEDCSVBPV5+QcLryGedoIOE4aaMvLQlAwlqmxaigIGGj0qVVsJCwVulAMEkQ8Crh2ioScdz51MNNYrzoM3wCkHD4TLPSIiSclUxjnDUS8PLsaJEsVwTiZzNzYQJ5vrA8+F+eVSz1cKVDfiby8uUL7f3lKU9u5Q15fy4XOGvW08TPXO7R41r7a3nWsvrUKPkZP/5y9eo37Jq83C9vzrq9SH30BCDh6BmntQdIOK2Zxbg8E8hHwlI9yFkWj4shODe1ipLMpqdPf4Kc9XL5OK7cw5WIVEmrhSK4jCHXCZY2uRoTS5iP4U2tmuSsoOQZCHb0TQAS9o0MB/xAABLGqZB5Al7rCYtAeSYsElZL/NW0HO0sZcgirUnCUq/YKW4pByizb04az3x5f964+o+zMAGWx+M7tSHh+FinrSdIOG0ZxXh8EwgyE85XwmrxeC7pJwXra5OwWuheBqnOxPlnIl5nzWHfUHCALwKQsC9c2FkhAAnjdMg8gbAkrNbDnThxWo6r20yYX5QatTKr5f/XJmH1mrDU6XVKWK0L7Lw2nflERwgAEo4QbsqbhoRTnmAMr24CXu+Orrsl7JFVApBwVjMffNyQcHCGaMFwApCw4QnUIHxIWIMkGBoCJGxo4hB2eAQg4fBYZrUlSDirmQ8+bkg4OEO0YDgBSNjwBGoQPiSsQRIMDQESNjRxCDs8ApBweCyz2hIknNXMBx83JBycIVownAAkbHgCNQgfEtYgCYaGAAkbmjiEHR4BSDg8llltCRLOauaDjxsSDs4QLRhOABI2PIEahA8Ja5AEQ0OAhA1NHMIOjwAkHB7LrLYECWc188HHDQkHZ4gWDCegg4TlaVszZy6mbt361ElUfVxmnTvnsQM/InP06AftWDi2Fi0K7OdTyxZ1/3mEnOghkHCi+I3uHBI2On0IPgwCXiXMz2WWAgpSSrCm/v0UT3AWXvAypqglqErYLZ6o+/fCQKd9IGGdsmFWLJCwWflCtBEQ8PvsaCklKKUIuWQgb+rznJ21hWUfqSesDkPkrtYa5jrCvHGtYu5PfSb02LGPU/Pm59JTTz2ae1OwaVOlXUVJnkft1o/0qbbFx7k9b1okzMeMGNHXrtjERSb451y7mDeOg2fH6psTbi+LGyScxayHM2ZIOByOaMVgAvlIeNWqJblyhjJ0dfaozoTVAg4sPBaoVE3iY9WZsNqu/JxLH44c2Z/UWsU8E12zZhlxoQi3NqXsIgvcuanxqK9x39Om/cauTexcjuY3HLxJn24zYbUGssGnQ16hQ8J5YcNBFgFIGKdB5gn4rSfMYlNlqc4O5ZquKmH1dXUGKeBVCbPcxo0bkcsJz64nTZpeTfiqBNVKSuqsVGbRbgnmmHhj4fJYeLbLm8yg3STMFZ7kDYTav1zP5uOzWrkJEs78n5G8AUDCeaPDgWkhkM9M2K0GMAuQhck3M9U0E3ZjVtNMWJW020xYyh6KhHl/kSQvf9cmYd5XZtC8rM2zbBYr/6tpJsz9VVSU2bNvkXCnTt1zbxCEiTrLT8s5Utc4IOG6COH1mghAwjg3Mk/Aj4Tlxiy5Hqpeh+WfiaSctYXlmjDDdl43dd6Y5TazdLsm7JQwC1FmtBwLb+odzZJotX0W9fTpTxBfg+abzZYvX2hJeD6tW7fSnpFzrOoyszrTFgYyNv5+9eo3bIlnbYOEs5bx8MYLCYfHEi0ZSsDr3dGGDg9hx0AAEo4Bckq7gIRTmlgMyzuBNEtYnYEzEbmD2zsd7OmFACTshRL2cSMACeO8yDyBNEs488mNCQAkHBPoFHYDCacwqRiSPwKQsD9e2Ls6AUgYZ0W+BCDhfMnhuNQQgIRTk8rEBgIJJ4be+I4hYeNTiAEEJQAJByWI4yFhnAP5EoCE8yWH41JDABJOTSoTGwgknBh64zuGhI1PIQYQlAAkHJQgjoeEcQ7kSwASzpccjksNAUg4NalMbCCQcGLoje8YEjY+hRhAUAKQcFCCOB4SxjmQLwFIOF9yOC41BJKWsFsVpDjhqtWT+Ovx40dVqdjEsfipjxxn7Lr0BQnrkgnz4oCEzcsZIg6ZgFcJq89N5ucscyGDmjY/0tJJwmGMJ+T0GNEcJGxEmrQMEhLWMi0IKk4Cfgo4cHEDLmWoFjWQR0PKIyHVYgtS2k/2kVKB6vh4/+LiZ4iLQ6iPlRTpy8+kylFp6QKSYhFceIE3KaHoxk0tsMAFHZzxqjNh7rOgoHW1EofcLhdzcBtbnLnStS9IWNfM6B8XJKx/jhBhxATykbBaT1jCU2vw1lTK0G3Wq9YDZrkPHDiM1q5dYTfL0pTXuUyhlB1UkbCc16xZ5jozd1ZoUo+TePln06b9Jide+ZrHIG86nDN7VdwRp8eI5iFhI9KkZZCQsJZpQVBxEnCTsLr0LDNRVUqqhFlmPDtVZ6SqtNTXeR8pAShjVMUsM2yWKsuYaxNL7V6WsCpb/jmXG+SttuVxjpVLHMps2RlvbRLmOsO8yXikLf6Z26w+zrzp1BckrFM2zIoFEjYrX4g2AgL5zISlgD2HI3V9WVSTJk23xVnTTNgtfDcJc5ss3cGDh+eWvvlYVcLSBx8vdYxrw8P733//o9XirUnCvGzN9YZ5+V36kv/L0ngWawe7MYaEI/jFzEiTkHBGEo1h1kzAj4T5ui1vMpvl5d7Cwra5n4kMeUbL12tlhqqWFORrq+rmJmGWr/ParXPZWWa0HMuUKQ/Z12ydmxofxzJq1AOu8bJchwy5hzp16p5bmlZn2twut6+Oa/nyhbnl6qyfX5Bw1s+A/McPCefPDkemhIDXu6NTMlwMIwICkHAEUDPSJCSckURjmP5nwqYxk1mqGndtd02bNj6d44WEdc6O3rFBwnrnB9HFQAAz4Rggp7wLSDjlCY5weJBwhHDRtBkEIGEz8qRzlJCwztnROzZIWO/8ILoYCEDCMUBOeReQcMoTHOHwIOEI4aJpMwhAwmbkSecoIWGds6N3bJCw3vlBdDEQgIRjgJzyLiDhlCc4wuFBwhHCRdNmEICEzciTzlFCwjpnR+/YIGG984PoYiAACccAOeVdQMIpT3CEw4OEI4SLps0gsPq1Srrw8tPNCBZRaklg87ovqUv/elrGhqD0JgAJ650fRBcDgeV/PUbntT81hp7QRVoJbPtwH3UfdFxah4dxRUgAEo4QLpo2gwCWo83Ik85RYjla5+zoHRskrHd+EF0MBCDhGCCnvAtIOOUJjnB4kHCEcNG0GQQgYTPypHOUkLDO2dE7NkhY7/wguhgIQMIxQE55F5BwyhMc4fAg4QjhomkzCEDCZuRJ5yghYZ2zo3dskLDe+UF0MRB440+H6LSmDULvaf/+/XTSSSeF3i4azI9AZWUlHThwIJKcHDl4jLpcH/45lN9IcZRJBCBhk7KFWI0h8M7atfTZZ5/RLTffbEzMaQ/0W+tN0csvv0xdOnemdu3apX24GJ8hBCBhQxKFMM0h8PEnn9Dy5cttAZ9yyinmBJ6BSHd+/rkt4muuuYbaX3RRBkaMIepOABLWPUOIzygCn1t/5F/6619p8I030jnnnGNU7FkJlt8klZaW0pDbbqPGjRtnZdgYp6YEIGFNE4OwzCPA14BftgR8xRVX0I+x3Kl1Ate8/TZVVFTQ4EGDtI4TwaWfACSc/hxjhCESaH9Jc9r43g7XFl+dM4eaNW1KXbp0CbFHNBUVgUWLF1OjRo2oV8+eUXWBdkGgTgKQcJ2IsAMIfE9g7tyXaOWqZTTx109WQ/Lm0qV0+PBhurZfP+AyhMDRo0ep+MUX7ZWLtm3aGBI1wkwbsKQ19gAAIABJREFUAUg4bRnFeCIlMOHhX1aT8PoNG+gT6zoj34hVrx4q6USagJAbr9i+nV6bN4+GWteHmzRpEnLraA4E6iYACdfNCHuAQI6AU8Lbtm2j10tK6LZbb6XTTjsNpAwksHbdOtq5cycN6N/fwOgRsukEIGHTM4j4EyPAN2K9+Je/UE/rmmLrVq0SiwMdByfAeezQoQOWpYOjRAs+CUDCPoFhdxAQAnPmzqWmfCOW9fAHbGYT4BWNN/72N7rrzjupfv36Zg8G0RtFABI2Kl0IVhcC/BGXXdZngq+//npdQkIcAQmwhBs1bEjdu3cP2BIOBwHvBCBh76ywJwjYBPhmnvnz59PQIUPwRKwUnRPffPstPffcc/Tzn/3M/ugSNhCIgwAkHAdl9JEqArOKi6ljx464fpiqrH4/mCVLllAT6wa7yzt1SuHoMCQdCUDCOmYFMWlLYP369bR9xw7cSatthoIF9vmuXbRgwQL66V13BWsIR4OARwKQsEdQ2A0EuBRe0YwZ9qMOzzrrLABJKYE51pPP2rRtS+2sf9hAIGoCkHDUhNF+agh88MEH9FlZGWbBBme0tseOyrA+/vhj+mTzZuTZ4DybFDokbFK2EGuiBBYuWkQtrMpIF6EEXqJ5yLfz2h47qrbJn/9+/oUXaNTIkfl2heNAwDMBSNgzKuyYdQJ/njXLfjBHyxYtso7C2PG7PXbUbTD8TOmrevWiZs2aGTtWBG4GAUjYjDwhyoQJ7N27l/5twgS62Xo+9HXXXptwNOg+XwJeJVy6fDmdcMIJdMXll+fbFY4DAU8EIGFPmLBT1glMf+YZ+0H//Hzof3ngAbroxz/OOpJUj5+v/W+wCnMMuvHGVI8Tg0ueACScfA4QgeYE+Frws3/8I+3evduO9JKLL6Zx48bRWWeeWSXyXldfSnv37qmx3rDmw0R4CoF9+/bR7FdeoeE//Sm4gECkBCDhSPGicdMJbNq0iZ78r/8ifrawut0wYADdd999pg8P8ddC4L+nTqXR996LZ0njLImUACQcKV40bjIBvg7875Mn03vvvVdtGA2tZwzzsnTPHj1MHiJir4XAc88/bz8b/HSUqMR5EiEBSDhCuGjabAJHjx6lJ/7zP+nNpUurDeTUU0+lf/2Xf6FOeLyh2UmuJXquknXpJZdQQUFBaseIgSVPABJOPgeIQGMCn376Kf37f/wHbSsvrxLloIEDacyYMRpHjtCCElhsPUe6efPmuAkvKEgcXysBSBgnCAjUQaDEepYwXx88dOiQvWerVq3o0YcfxqMrU37mLCsttatkXdahQ8pHiuElSQASTpI++jaCgLoszcvQ9//zP1MP1Jw1IndBglz91ltUr1496tK5c5BmcCwIYCaMcwAEghLgZenHfv1r6ta1K/3TP/1T0OZwvAEE1lkVs761agzj5jsDkmVwiJgJG5y8tIW+e1sl7d76nbbD2vn5LuthHU3oBG0LvldSm87HUYNG9bRlaFJg773/vvW577109VVXmRQ2YjWMACRsWMLSHO66xcfo0muap3mIkY5t06q9VHDxYWrcpH6k/WSl8fc3bqQ91gNarrnmmqwMGeNMgAAknAB0dOlOgCV8xU9QHCHf8+NDS8LntD4ICecL0HHcRqt05a7PP6fevXuH1CKaAYHqBCBhnBXaEICEg6UCEg7Gz3k014/eaUm4DyQcLli0VoUAJIwTQhsCkHCwVEDCwfhBwuHyQ2veCEDC3jhhrxgIQMLBIEPCwfhBwuHyQ2veCEDC3jhhrxgImCzhCRNGU+fOvWjw4OExkHLvAhIOF/3adevos88+o5tvusm14faXNK+xYhYqaoWbizS3BgmnObuGjQ0SDpYwSDgYP/XoiooKmjd/PjVu3Jjat29f7alZc+e+RCtXLaOJv34yvE7RUiYJQMKZTLueg45TwlOnTqIpUx7KgSgp+ch6UH8bPcF4jAoS9giqjt0OHz5MxS++aD+Y5UyrZjR/PdB6Vvg51nOk1W3Cw7+EhMNBnulWIOFMp1+vwcct4dWr36CiohJiIfPXo0c/SCNG9LWhDB16L02cOM1+TWTNot65s7zaPrwUPWvW0zR27ONWUYfxVY6ZPHlmbEvUkHA45zM/K/yUk0+m7j88mvSjjz6it995h4bcdhsdf/zxuU5Ewv89dQpt377NFrL6dTjRoJW0E4CE055hg8aXtIRZyLyVlX1MhYVtadOmSho5stCWqPNar7oPH8P7de3a2ypt2N2WNB8r+8Q1y4aEg5/sfB1469atNHjQoCqNlVrFHA4cPEjX9usXvBO0AAIKAUgYp4M2BOKWsHM5Wp3lMhSWJ28sZN5YrKtWLcnNhGUfXsYWCTdvfi6NGzeiClNIWJtTrM5A/vLSS3TeuedSly5dquy723py1ksvv0yj7rmHjjvuuDrbwQ4g4JUAJOyVFPaLnEDcEpblaBmYzHo7drzSFq8qT15ybtGiwF625lmxcx91Jjx+/ChatGhz5LycHWAmHBz5zp07ac7cuTTs9tvpZGtJWra/zp5NF7ZuTZdccknwTtACCGAmjHNARwJJS1iu/7Zs2cq6Sau1LdvZs5+l0tIFNi6W8rx5xfY1YnUf3k8kzNeE5RoxHyPXiePgDQmHQ5lLGH715ZfWG7FCu8F3rOvB/OSs6wcMCKcDtAICkDDOAR0JxCnhsMdf07XjsPuprT1IODzavCzNH006y7o7mpeheWbcpEmT8DpASyDwAwEsR+NU0IaAiRKWa8Q9e15n32md5AYJh0dflqVPPfVUan/RRViGDg8tWnIQgIRxSmhDwEQJawPPCiQJCR85VEmHD1bqhCG0WDZs2GDVE/7SqqKUzlKGDU+oh9rToZ0t+TcECefPDkeGTAASDgY0CQl/tes7+vjt+nR600bBgtf06EqqpHrWf2nbDh88RpXfHaCLezVI29CMGw8kbFzK0hswJBwst0lJeN8XjemCDrheGix78R797ddHafPanXRxz388fCTeCNCbEICEcS5oQwASDpYKSDgYvywdDQnrk21IWJ9cZD4SSDjYKQAJB+OXpaMhYX2yDQnrk4vMR/LWvKN08mknZZ5DvgD2fn6QOvYhatykfr5N+D6OrwljOdo3tsQPgIQTT0EuAEhYn1xkPpJ3Fh6jS69ulnkO+QLYsv4ratn2ECScL8AMHQcJ65NsSFifXGQ+EixHBzsFsBwdjJ+fo6XyVtKfDfcTs7ovJJwvufCPg4TDZ4oW8yQACecJ7ofDIOHa+fFTzeQRpLxnkDKTkHCwcxVH/4MAJIyzQRsCkHCwVEDCdUuYy03y871l42eDS9WrmTMXU7dufezngKvPC3erIa1KWH1WuLQRLJPRH42ZcPSMvfYACXslhf0iJwAJB0MMCdctYZGrzIKlOpaIubYZrlpD2m0//llFRRlNnDgtWCJjOBoSjgGyxy4gYY+gsFv0BCDhYIwh4bol7JwJ8xHt2n3/RCyukjV9+hN2yUp1tuxWQ5qraUkpTHUmrMMzxL2cRZCwF0rx7AMJx8MZvXggAAl7gFTLLpBwfhLmo2QWywJ2zmbd6kyLhB955Hd27elNmyrtNpw1qoNlNLqjIeHo2PptGRL2Swz7R0YAEg6GFhKuW8LOG7PWrFlGs2Y9bR8o13P79WtN5eVbcj9bu3ZFtRrS/CJfS+bZ88iR/e39hw69126Lhaz7BgnrkyFIWJ9cZD6SqCXM1/Qee+y+xEsORpVoSDgqsulrFxLWJ6eQsD65yHwkXiXMd7TyDKamG2D49R07tlW5rsdw/UiYlxabNz+XBg8ebkxeIGFjUpV4oJBw4inIBQAJ65OLzEdSm4T5upw8GEGVMP+8rGxzbjmQxSw32rRs2YoWLdqc4yp3t8oPZPmR95clRP6alxj5Oh9vcqONW5vqDTl8t60sUfL/x459vNqbgKgTDAlHTTg97UPC+uQSEtYnF5mPJF8J880xBQVtbPmyTL3MhPmO1/HjR9mSdkpYbrJxmwmz9EePftDO1bRpv3Fd2mbZ83VC9Q1AHMmFhOOgnI4+IGF98ggJ65OLzEfiJmH1YQoMSGacshzNUhQJ8w01LD4vEua2ZH8vElYf4MAzaH6Ag3PJW51pO2fhcSQXEo6Dcjr6gIT1ySMkrE8uMh9J0JmwHwmrs1U5zvkwBpkJq1LnfSdNmu46E5Y3BCxomWXHmVRIOE7aZvcFCeuTP0hYn1xkPpKwJKzOSPn6Li9V81bTNWG+CWvKlIdy/Hk5Wn1Ag3qNmK/1yudIndeEeWbM7fB1ZN542ZofgxjXBgnHRdr8fiBhfXIICeuTi8xH4vXu6MyDqgFAUhLeU3EitWx3CtJiEIEDfz9K5Zv2WKVDjzco6nSGCgmnM69GjgoSDpa2pCS86a36dHrTRsGCx9GxEjh88Duq/O4AJBwrdffOIGENkoAQvicACQc7E5KS8L4vGtMFHZoECx5Hx0oAy9Gx4q61M0hYn1xkPhJIONgpAAkH45eloyFhfbINCeuTi8xHAgkHOwUg4WD8snQ0JKxPtiFhfXKR+Ugg4WCnACQcjF+WjoaE9ck2JKxPLjIfCSQc7BSAhIPxy9LRkLA+2YaE9clF5iOBhIOdApBwMH5ZOhoS1ifbkLA+uch8JJBwsFMAEg7GL0tHQ8L6ZBsS1icXmY8EEg52CkDCwfhl6WhIWJ9sQ8L65CLzkUQlYbVikmmQ/cQOCZuW3eTihYSTY+/sGRLWJxeZj8SrhNXnOg8dei9xDWF+jvPAgcNifVazmjB+/rRb6cM4k2qChDl3NZWAjJOV2ldNVbeSiieffvm56I89dp9raU239iDhfChHcwwkHA1XtJoHAa8FHJzCdUp51KgH7Hq+vBUUtLYKN2y2/19UVGL9vJBKSxfYr3ExhjFjxpNawIGLL/B+6uYsY7h27YpcwQcurdix45VUWNjWPkSOV9vk0odcyEEt+KC+eZg162n7WC4UwZuX2NXCFBKrbhJmBp06da/yxkgYqPFzKUmVHUuR/3GeOEfcxogRfavkTM2JyrJz5140ePBwm7V8zZWvysu3kJSXlDcC3D4fK/zldbV8JueX21M3iVctV6nm1i2PfE65jXPcuBG5pqUWtpTp5Djka2f7Uj+bzzc5v+W8lv7lnBQ+6hgg4Tz+QEV0CCQcEVg065+AVwmLdNU/5KqYpVqSvK7OvtSyhSw7rj8s9YTVP3oSvdvP5DW1XXUm7JyVcJ9FRfNtuXJ/vC9vLBeZFUpbXBuZ/3i6xS79yvH8BkLdTJAwy5OlJrWY1bwJQx7TU089arPiTfixeORrnvVJHWlukytWzZnzQk68ImHux1mSUqTO0uPNORN2qy/tdjZLv/wa980rMpJ7Zx7VNwXyNR8nHOQ84zcOTgnzCo+zfZG6vMFznnMSG7/5U7+WcUDC/v8+RXUEJBwVWbTrm4CbhNVZCTeozkz4D7LMcJ0SFuHxMW4Slj/u/IderUMsfwBV4TmXmdWZtzrzlf3U16Ud/oMv/YhEeX/5I6z+8a4pdnV2LbN4XSUssz6Oz42RiE6d0fK+PC7mouZBuPHrUrNZlbDIm49xzoT5ZzLT5eN5VshSU5fEVQm7vYGSNwPC2rkywvWj1Rktz5DVN11q3PxGQn2z4cw/v0FxSpjH5GxfffPI7dcWt9ulGkjY95+nyA6AhCNDi4b9EvA6E1bblT/QQSTsrB0s9Ye5H7eZsCptfp1nJbXNhCVe9Q2F1CyWGY70I0vp8odfnSHLNT8ea4sWBfZSuq4S5ricy9GyLCwx8xsqFo7zWr6TuSphVd7OmTBfJpA3QuqM2+1NVE0SVt+csdjUN0RyPog4Oa5Jk6bbw5E8yticx6rnp8xMWd7OmbA662V+XLta/Zmab3XG7jYTFj7qSoIcDwn7/esU3f6QcHRs0bJPAl4lrF4fkxmhCM5tFlLXTNjt+qIaunPmw39weXbFs6rlyxfasx7+gyrXLVmwbrNWVUISt9q2ei3RKWEWvRzPxxYXP5NbrpVYdV6OdopVlZQ6a3ZeFxXxyUzQjZtc85TLEKrkeWapcmfGnCtVwupx/Pq8ecVVrvmr14TVfTkWlqTcGCgzbrlPQBW4epysDDhXeWR5XI3X7d4BWQ1SJSxvHvjaN7/erFnL3PmIa8I+/xDFvDskHDNwdFczAa93R0fJUJ11RdWP3ztZvcahm4S9xp3PfrIsra5a5NNOksckeVc2ZsJJZr5q35CwPrnIfCRJSVidebjdDRtWYtQZn9xQE1bb3A4kHCbN6NuChKNnbEIPkLAJWcpIjElJOC14syThtOQsqXFgJpwU+er9QsL65CLzkUDCwU4BSDgYvywdDQnrk21IWJ9cZD4SSDjYKQAJB+OXpaMhYX2yDQnrk4vMRwIJBzsFIOFg/LJ0NCSsT7YhYX1ykflIIOFgpwAkHIxflo6GhPXJNiSsTy4yHwkkHOwUgISD8cvS0ZCwPtmGhPXJReYjgYSDnQKQcDB+WToaEtYn25CwPrnIfCRxSDiuUnpujwqMOsFJSXjL+uPozHNOjHp4aD9EAocOfEeH9n9Dl159fIitoql8CEDC+VDDMZEQ8CpheWYvV4jhzY/wIOFwU/fVru9o56eNqHnrk8NtGK1FSuDgN8do19a9kHCklL01Dgl744S9YiDg9dnR6nOIWar8LGfe/NSSlZrBzhqvMkznA/hF/M7Sg1K8YcqUh+xD5UlY6hsDt1qwUeBMaia874vGdEGHJlEMCW1GRADL0RGBzaNZSDgPaDgkGgJeJcy9y8PrpTqNn1qyIlK3Gq/qw/qlbe6PK/TUVP9XqhvJrFzKI0phBzdxR0EQEo6CajrbhIT1ySskrE8uMh+Jn3rCUjpQir+7CbWuWrJqEQC1FKE6G54+/Qn7Wy4xqFbfkWVtLiYv1ZPkOKkdzBJet25ltZrBMgsPO+GQcNhE09seJKxPbiFhfXKR+Uj8zISlNJyUtlMl6rWWrFuNV7nOLMngtlq0uMAuV6dWP+Ilcf7HNVvVmbAcJ8vRLG5nzWBuK4oNEo6CajrbhIT1ySskrE8uMh+JHwkzLHUm67WWLJe+Y0EOGXIPDRgwhAoL29rcpcarMwksWq7NKnJW6//KMW61g/lnUvPXWTM4qvJ7kHDmf4U8A4CEPaOKfEdIOHLE6MArAa93R3ttL2v7JSHhI4cqafVrR6hho3pZw238eH90bn06/9LjjB+H6QOAhE3PYIrih4SDJTMJCQeLGEeDAAhAwjgHtCEACQdLBSQcjB+OBoEkCEDCSVBHn64EIOFgJwYkHIwfjgaBJAhAwklQR5+QcATnACQcAVQ0CQIRE4CEIwaM5r0TwEzYOyu3PSHhYPxwNAgkQQASToI6+sRMOIJzABKOACqaBIGICUDCEQNG894JYCbsnRVmwsFY4WgQ0IUAJKxLJhAHQcLBTgLMhIPxw9EgkAQBSDgJ6uizxuXoywtbgE6eBDat3kvntD5IjZvUz7MFHAYCIBA3AUg4buLor0YCq+YeoUYnngBCeRL45svD1OnaepBwnvxwGAgkQQASToI6+nQl8NbrB+jKgReATp4EPlz1BZ105ufUouCMPFvAYSAAAnETgITjJo7+qhE4evQozZs/n0462JUK7+gAQnkS4GvCpWv/SF17XErtL7ooz1ZwGAiAQJwEIOE4aaOvagQOHjxoC7jp2WdbEu5GV/wE14TzPU1YwieesYOWLJtHl112GXW49NJ8m8JxIAACMRGAhGMCncVu2l/SnDa+t6PGoX/zzTe2gAvOO4+6du2Ku6MDniRyd/SRyn0213bt2tHlnToFbBWHgwAIREkAEo6Sbobbnjv3JVq5ahlN/PWTrhS+3meJYt48atumDV1++eX2PviIUrATRv2IEr/Bec3ie8H551OXLl2CNYyjQQAEIiMACUeGFg1PePiXrhL+8ssvbUFcfPHF1NFaNpVt3eIjRPUaAlyeBL796gh17Fs/d3f0gQMH7Blx82bNqHv37nm2isNAAASiJAAJR0k34227SXjPF1/Qa6+9Rp06dqRLXa5ZcpF4bMEINGhUL9fAkSNHbBGffvrpdFWvXsEaxtEgAAKhE4CEQ0eKBmsi8NVXX9Grc+bYy88Xt28PUDERqKystFceTm7cmK655pqYekU3IAACXghAwl4oYZ/ABPgaJQuY5duhAz6GFBhoHg3wjLhRo0bUt0+fPI7GISAAAlEQgISjoIo2qxDga5Ms4AsvvBB36yZ8bpQsWED169ena/v1SzgSdA8CIMAEIGGcB5ES4AdxvPLqq3Ruy5a4SzdS0t4bX7hoEX137BgVFhZ6Pwh7ggAIREIAEo4EKxoVAq+XlNjXInv27AkoGhFYtHgxHWMRX3edRlEhFBDIHgFIOHs5j23EK1eupL3Wx5GuHzAgtj7RkXcCELF3VtgTBKIiAAlHRTbj7W784ANav3493XLzzfbNQNj0JLDIWpo+9t13mBHrmR5ElQECkHAGkhz3ECsqKmjO3Lm2gH/0ox/F3T3680mArxHzhpu1fILD7iAQAgFIOASIaOIfBPhGrOf/9CfqYT2hie+GxmYGgfmvv04nnXgiXX311WYEjChBICUEIOGUJFKXYSxdtozIejjEVVddpUtImYyjruIZblD4LnZeueh+5ZWZZIZBg0ASBCDhJKintM/y8nJavGQJ3TFsGDVo0CClo9R/WHUVz6hpBIetR1y+aon4fKvowxU/FNXQf7SIEATMJgAJm50/raIvfvFFu44tV0bCliyBmopn1BXV3//+d/rLSy/Zy9KtLrigrt3xOgiAQEACkHBAgDj8ewJr3n6bvrCKM/wED4DQ4pTIV8Ic/NZt22iB9WStW2+5hU477TQtxoMgQCCtBCDhtGY2xnHt37+fxv3qVzTpf/9vOvXUU2PsGV1FRWD9hg20zZLxwBtuiKoLtAsCIGARgIRxGgQmsHbtWvr666+pd+/egdtCA/oQeOnll+2az+3attUnKEQCAikjAAmnLKFJDOdPL7xAva0Sec2bN0+ie/QZEYFPP/2U3n3vPRp0440R9YBmQQAEIGGcA4EI8PXD1atX02233hqoHRysH4Ej1t3SzxQV0ZjRo6sEl8/Hn/QbHSICAT0IQMJ65MHYKBYsXEjNmjWjSy+5xNgxIHB3AuXWk88e+/WvaaL1r1nTpvZO+X78CYxBAATcCUDCODPyJsBPx5r+zDM0cuRIaojPBefNUccDDx8+TPyRs6Znn01f7N1LQ267za5DzFuQO691HCtiAoEkCUDCSdI3vO/t27fTylWr7GdEY0sXgRLrI0qnnHwydbceP7p06VI6Yr3h6tunDyScrjRjNBoQgIQ1SIKpIfBd0fzxJNQKNjWD7nGvXbeOtm7dSoMHDcrtwA/waGvdJY3LDunKNUaTPAFIOPkcGBsBP/S/datW1AZPyDI2h87A+Trw/Pnz7eXnJk2a5F7mB7Hw8vRdd95Jp5xySmrGi4GAQNIEIOGkM2Bw/zOffZZuGjwYD+gwOIfO0Ddu3EjLSkvp3l/8otqoZhUX2x9FO9u6TowNBEAgHAKQcDgcM9fKoUOH6Nk//pFG3XNP5sae9gHzCsdZZ55JnTt3zg11xcqVtP/bb6lfv35pHz7GBwKxEoCEY8Wdns6+/OormjdvHt15xx3pGRRGYhPgIg4v/PnP9kM6mlofTaqwlqj5Rq1ht99OJ1o1h7GBAAiERwASDo9lplriO6NXv/WWvRyNLX0EeFn6w02b7DvfeRm6I1fHwuMr05dojChxApBw4ikwM4BPPvmEtmzZQoWommRmAj1EzcvSe3bvth9HimVoD8CwCwjkQQASzgMaDiF6//337dKFXHcWW+0Edm89RocPmUfp4MED1ufAV1MP67PCDRs2NG4AjZvUo9PO/v4BI9hAQFcCkLCumdE8rnfffZe+sionXdWrl+aRJh9e6ctHqNVlZyQfSMYi2LJ+L/W8uUHGRo3hmkYAEjYtY5rEu379evrGulu2Z48emkSkbxhvzTtGVw5qoW+AKY1s5ewK6nL9cSkdHYaVFgKQcFoyGfM4+KlKBw4csJcqsdVOABJO5gyBhJPhjl79EYCE/fHC3j8QgIS9nwqQsHdWYe4JCYdJE21FRQASjopsytuFhL0nGBL2zirMPSHhMGmiragIQMJRkU15u6us6kl8Tbhf376uI0Xh939gSYOEp06dZA9ozJjxxpzZkLAxqcp0oJBwptOf3+D5o0l/fO45+2B+0P8555xTpSEUfq/KFRLO7zwLehQkHJQgjo+DACQcB+WU9cFl7dpZT09q2KgRrVmzxhZxgwZVPwqCwu/JzoR55jplykO5IEpKPqKCgjYpOxNrHw4knKl0GztYSNjY1CUT+JtWgfejSoH30uXL7ZrC1117bZWAIOHkJbx69RtUVFRCLGT++pFHfmc94aytHVjPntflXhNZs6h5q2mfoUPvpYkTp9Hs2c/SuHEj7H3Hjn3cXqKeMGG09YzpT6m0dIH9swEDhlRrJ+4zFhKOmzj6y4cAJJwPtYwe8+GHH9L6DRvsmW/9+v94EtFfZ8+mC84/ny6zni+MrTqBJJajRbyqhPlr2dq1q0cs3cceu48GDx5u/3Nusg/PoFmyvI0a9YAtV5lZ8z4zZy6mOXNesCUsfYwcWZhrV/06zvMDEo6TNvrKlwAknC+5jB23b98++tMLL9BVV11F7S+6qMrot23bRr994gma8uSTdNxxeDiC89RISsLO5Wh1lstfszybNWuZm7Fu2lRJZWUf576Xfbp165OT8MCBw2jEiKo344mEW7QoyN241a9fa5o0aTrJseprcf3qQMJxkUY/QQhAwkHoZezY96znRXPhBmflpHnz59PZP/oRXXHFFRkj4m24SUlYlqMlSp7NigxlBsuS5E1eq6goc93HORNmYaub2jb/HDNhb+cG9gIBSBjngC8CXEP4bKvG7BWXX24fx4UcPvr4Y7ouzN9RAAAUWUlEQVT5ppt8tZOlnXWRsHotl6/vspBZ1HwdlzdeYl63bmXueq/sI9d8eR++Jqze9CXXiZ0SVmfUcv057pxjJhw3cfSXDwFIOB9qGT7ma2tZ+gVrWZrrzDay7o7m4u88Mz777LMzTKX2oSch4bCT4ZRs2O1H0R4kHAVVtBk2AUg4bKIZaE+WpVnCWIauO+EmS1hmtC1btqJFizbXPViN9oCENUoGQqmRACSMkyMvArwsffDQISxDe6BnsoQ9DE/bXSBhbVODwBQCkLAGp8NHa47S7m31qOEJ9TSIxlsI331XSZWVldbd0GYVTT/p1O/o4p7HextkSHtBwiGB9NkMJOwTGHZPhAAknAj2qp1+9PYxanbBWXR600YaRJPuEN5+vZw69oWE053l70cHCWchy+aPERLWIIeQcHxJgITjY510T5Bw0hlA/14IQMJeKEW8DyQcMWCleUg4PtZJ9wQJJ50B9O+FACTshVLE+0DCEQNOWMIrZh+lCy8/I75BoiebwCdv76XuN8V76QHoQcAvAUjYL7EI9oeEI4BaQ5NJzISXv3yULuh4enyDRE82gU/Xf0k9IGGcDZoTgIQ1SBAkHF8SkpAw7o6OL79qT1iOToY7evVHABL2xyuSvSHhSLC6NgoJx8c66Z4g4aQzgP69EICEvVCKeJ8oJcyPG+TKN/Kg/oiH4qv5VauW0Pjxo2J9EhMk7CtFRu8MCRudvswEDwlrkOqoJCyPHHQ+QJ8r3KgP7ed6sVxVh/fjn/OD/OfNKyYphTd58ky7NiyXpysv32ITkzZVkfLXXObOWRJP9uUCAvyP++CflZVtzrXnLKsX1UP/IWENTviYQoCEYwKNbgIRgIQD4Qvn4KgkzNVuuDTdrFlP54qwq8XeWYhPPfWoPRNlCYtsRd6qTPlrtUYsf33//Y/a9WhlNqtKWF5nebP0u3btTc2bn2tX6JEyeM6ZcBzl7yDhcM5ZE1qBhE3IEmKEhDU4B6KSsEhzzpwX7FFyGTpenmYpyyYP5mcJ8wyYZ8VOOcprI0f2r1aovVOn7q4S5mPUbezYx20Js/iLikrsl5z9xFEIHhLW4ISPKQRIOCbQ6CYQAUg4EL5wDo5CwmrtWImSZ6AyO2Yhq5sq4bBmwpMmTa9yLVqWo2uSMGbC4ZxPaOV7ApAwzgQTCEDCGmQpCgnzrHLIkHuIC7Lzpn6vXtvla7F805YqYd5fLdxe2zVhaVuuFfP3LHtZmubvZbbtlDC/JjNm7qNjxyupsLCtHS+uCWtwYhoeAiRseAIzEj4krEGio5BwFMNSl4ujaD+ONnVejnZ7kxIHk7T2AQmnNbPpGhckrEE+IeH4kqCzhOuioPPHzeqKPcjr/OZkx45tuVUdr21Bwl5JYb8kCUDCSdL/oW9TJKwBqsAh6CRhvvY+ffoT9g1zsjQ/dOi99vfqx8j4pja+AY4//sWb7CMw5AY3uSTAN9jt3FlO06b9xr4Jjl+Xr7ld+WgYtysfQ5M71p2AnfcWyH5yGUG91MB3vvPG/a9bt9K+E5437ocvi6iXOOQ4fl0uj8jPJF7+KBuPVW4klNfVduRyituJAQkH/nVBAzEQgIRjgFxXF5BwXYTCe11nCbPw1qxZZkuYxcQfHWNR813p/HVNM2GWFt8Bz8exoHhjabtJWK79q5Lmdjt37mV/FtxNwjILVeOT/Vjqo0c/SGvXrrDvfne2ocbPsck+Eqe0I5KW2OXz5vy9OhPm9h577L7cHfbCCRIO73cELcVLABKOl7drb5BwfEnQRcLOj4rJ7NEpYZkpepWwCKsmCYu0nOJ2E2htAlRn6jIb5TEtX74w9+ZBbrJTZ7DSj/TPfcgT3dxid8ag3vAnZ01Ns3jMhOP7vUJP+ROAhPNnF9qRkHBoKOtsSBcJc6DO5Wi3mXC+Eh4wYEhuxqje8BVEwhIfz5plduy8WU9Eunr1G/TII7+zl8XlYS41zYRFzDIj5wfAyCy+rplwbQmHhOv8dcAOGhCAhDVIAiQcXxJMlrBcn1WvpzI5dVarLt2qs1X5yFc+EpZru9yX85GkfL2Xn8rWokVB7voyz4x5eZqvN3O/vMmStVyDVsfgvL6sXsOWNysyq3Y+UlWuN7udQZBwfL9X6Cl/ApBw/uxCO3LjiqO0b8/x1Oik40JrEw25Ezh6+CB1GdAgVjwmlzLM985kN8DqTDiOBEDCcVBGH0EJQMJBCYZwPGbCIUD02IROM2GPIce2m/NRozxb5eeD5/PxIEg4trShI8MJQMIaJBASji8JkHB8rJPuCTPhpDOA/r0QgIS9UIp4H0g4YsBK85BwfKyT7gkSTjoD6N8LAUjYC6WI94GEIwYMCccHWKOeIGGNkoFQaiQACWtwckDC8SUBM+H4WCfdEyScdAbQvxcCkLAXShHvAwlHDBgz4fgAa9QTJKxRMhAKZsI6nwOQcHzZwUw4PtZJ9wQJJ50B9O+FAGbCXihFvA8kHDFgzITjA6xRT5CwRslAKJgJ63wORCVhfiwiP2mopmfrxsHE+cD9OPqsrY80zYT54Rf8tCqpwhQX27D65c8lq1WZ+GlYBQVtcsPgJ37xoy/Vn7mNsabCFpBwXGcE+glCADPhIPRCOtarhEWq3K08hjDupxD5HTIkTOT1iVlqib7Jk2faFYlqqxLkNxe67a9K2C02SFi3jCGeKAhAwlFQ9dlmbRLmP0RcE5Y3p3DdpMx/2FjQXDO2oKC1/X+uwKPWkZV6tGqtWOfziKUEndSolUo5brVca6tRq8bIY5B21Dg5PmdNWZ8IPe+u00zYWcDBKVynlHmQnDOus3v33b+kGTOetGv1crEGLnfozJWzJjGXC5SN2y4ufsY+Rq3j61azWHLDx86YUWL1XZirEaxWg+KZLG9usahtqLNf/lracD6XmtuS2shucalP+HKrK4yZsOdfC+yYIAFIOEH40rVXCYvQ1D84TjHzHyZ5Xa3lqs4qZAbCfxiLiuZXKQAvMakzWKmeM2rUA7natmrbtdWo7djxylw1Hyk+z9JV41THEOazit1Sq7OERYzMRzZVzMzmqacetd9UyZsy/r+zYhKXQ+TygFKJyK1esMpcagJ369Yn16+cI1L31ylw3tGtXCIvH0u9X7f6w2oszuVolrAai9tMWI5R28FytAZ/xBBC3gQg4bzRhXegm4SddVPVajEy8+Q/xm4SlplGTRKWP+zyR04t8O4mYanSw3/YpXg87yft1FaZR5Wweoz6B9hZW1dm6uER/kdLukjYrZ4wX/uUN1qSb6eEpd5wTRKWXPEbJpFhXRJWJabOLmWWKvV+haKImUsQynOl5U2bKmG1upM6Xllqd5OwOl7nG0fpX2Qt14sh4Sh+U9BmXAQg4bhI19KP15mw2oT8gZo3r5jUguzqH7a6JKwuFTuX89SZsNsfdrXcnFcJO2fP8mYhzuvaukiYc+lcjnZ7A5SvhPlmLVnOdl5qEIGrdXzlDRb/n+v5yg19dc2E5U2Zuloi8nd788bnLV/r5n81SXjSpOnEs3I5x6dPf8Ke2atxqe1Awhr8EUMIeROAhPNGF96BXiWsXiOU2aI6Y2ap+ZGwOjuRG71qmwnzH3b1GBF3XRKWWrDctnpNWL1rW71m6LxLNjzSRDpLWGUgnIQ357tz517kdSbMuVJntTL7VGezTgnzigjXDmZp9+hxrd2f3Bwm15ulni+3w0vU6nVnuSbslLAaC8/wV69+w77PgcdWUfGp/bWct84VIG5z3bqV1eLiFRa380o9V3BNOMzfHLQVFQFIOCqyPtr1ene0jyZ975rmu3BVGDpJ2HeS8jxAXRbOswkjD4OEjUxb5oKGhDVIeVISru3uWQ2wRBJCViTsvCs9ytWFSBIVQqOQcAgQ0UTkBCDhyBHX3UFSEq47svTtkRUJpy9z/kcECftnhiPiJwAJx8+8Wo+QcHxJgITjY510T5Bw0hlA/14IQMJeKEW8DyQcMWCleUg4PtZJ9wQJJ50B9O+FACTshVLE+0DCEQOGhOMDrFFPkLBGyUAoNRKAhDU4OSDh+JKAmXB8rJPuCRJOOgPo3wsBSNgLpYj3gYQjBoyZcHyANeoJEtYoGQgFM2GdzwFIOL7sYCYcH+uke4KEk84A+vdCADNhL5Qi3icqCQepJ6w+YjLI8J0P5JdHFubTZpDxSH9pknBYdX3zyYUcE+cjR/3GCQn7JYb9kyAACSdB3dGnVwnHWU84CglrgFqrx1Y6eZhYTxgS1uGsRgwmE4CENcien2dHq8Ua4qgnLGXz3Or9qk/c4mcdr127gqZMecgmKs8qlpmwPJeY9+MSe1wTVzapiiM/k6c7qVKSZw5LfWR17PIcbX4W8fLlC+0auc5nYes4E9atnjAzcuZZHnk5a9bTNkLOA+dY+Ko5kkIRXMxB6h5LvWN5znOUFbKcv8qYCWvwxw0h1EkAEq4TUfQ7eJVw3PWEuTi7lEtkCvzAfrWMnVpMQKWkVlhyLkePHv2gXSGHN26La9KqdWylfSlUr9bWdVaFkrakD67oI2X3pFYylwdUN52Wo50STrqeML+JcuaZ8zN+/Khq54HwVat48ZugFi0K7Kpeat1jtSRhTRWPovgtg4SjoIo2wyYACYdNNI/2dK0nLBJW/3DyDIdryPKmzsr5e7UCjsyUapIw78t/9KVYvHPWy3/81drF3L4qYbXghMSnStitIDy3oYuEdawnrPKTPKt5UJee3UppyqzZWe1JrQ7FOXBWdMrjV8bTIZCwJ0zYKWECkHDCCeDuvc6E1VDjqCeszoTVsnf8R5Y350xYxCjLkVyiriYJ88/5dZGrWoCeZ1NeZsJS1F1mZVJ3Vq1Fa9JMWPKr1nKOs54wvyly5plr+MqbobokXNMqSU1viKL+1YOEoyaM9sMgAAmHQTFgG14lHGc9YR4S//Fs0eICUuvBqgXindeE+Y81Xzvk6358bbaoaH6uFqxc9+UlZOc1Yb4GzMLna7l8DbG4+Jnc8qdcY5Zri/LGQJ11q9eEZTla95mwvPngNw7Ml7ek6wnzmxepQSx5Vssg1iRhyZF6TVh9g6Zev1fPn4C/NnUeDgnXiQg7aEAAEtYgCV7vjo4yVNQTjo7uW/OO0ZWDWkTXQR0to55wYujRMQjUSQASrhNR9DskJWHUE44+t9xDEhJGPWEizITjOb/RSzACkHAwfqEcnZSEQwnesEZ0uTHLMGxGhgsJG5m2zAUNCWuQckg4viRAwvGxTronSDjpDKB/LwQgYS+UIt4HEo4YsNI8JBwf66R7goSTzgD690IAEvZCKeJ9IOGIAUPC8QHWqCdIWKNkIJQaCUDCGpwckHB8ScBMOD7WSfcECSedAfTvhQAk7IVSxPtAwhEDxkw4PsAa9QQJa5QMhIKZsM7nACQcX3YwE46PddI9QcJJZwD9eyGAmbAXShHvAwlHDBgz4fgAa9QTJKxRMhAKZsI6nwMbVxylfXuOp0YnHadzmKmI7ejhg9RlQINYxxLVwzr4MZIVFWW5x17GNSi1SpY8L1oqbDnjUZ+DHVd80g8kHDdx9JcPAcyE86EW8jGYCYcMtJbmdF6OVp8NLpWGdHycaE0SdsMOCcd3bqMnMwlAwhrkDRKOLwk6SdhZT9gpXKeUmRJXqCotXUB33/1LmjHjSbvghVSc4gIYvM2cudiu0VzbY0m5nXHjRtj7cxsyk3UWY+DXpbCEWtSBi3BwFSy1/nNhYVvXtqSspVp0Q/qMMvOYCUdJF22HRQASDotkgHYg4QDwfB6qs4RZaFJBSoblLGX41FOP2hWmeFMFKKUgWa5cwYirSYkouXYxl58cPHh4NVpqjWa1SpK0zQdIeUO1xrBTwiJx3l8tQ+ksy8iVtbi8pJSfdJaa9JnOWneHhMOkibaiIgAJR0XWR7uQsA9YAXfVRcIsRi77KBuXc2QhSeEFmSnmW0941KgHSK3R7JSwW3lBVcJSeYnjU+PkspGq4J3XhHn/Tp2652oQ11QbOY4aw5BwwF8WHB4LAUg4Fsy1dwIJx5cEXSTMI3YuRwuFmsQls1ypP+w2E3bW/+XlZbcaviLBnTvLafz4Ubn6zTLrdZsJS3y13ZglEpY2axoL1y3mGtNRbpBwlHTRdlgEIOGwSAZo56O3j1L9+idT4ybHB2gFh3oh8PlnX1LHvnrcHe12Tdh5XVdmzDwD5dksLzV7lTCLTja50Uu+l+vNfL2Wt9GjH6S1a1dQbdeEeT+ZsfMMfciQe+ylZ74WzNeh+XjeeGlanenLNWG369BecpbvPpBwvuRwXJwEIOE4adfQ15FDlfTV599pEEn6Q2hwQj067ez6sQ40qo8oeR2EOjuu7Rh1Odpr2zrvBwnrnB3EJgQgYZwLIBAxgSQkrF7zVWewkHDEyUbzIOCTACTsExh2BwG/BJKQsN8Y07g/ZsJpzGr6xgQJpy+nGJFmBCDhZBICCSfDHb36IwAJ++OFvUHANwFI2DeyUA6AhEPBiEYiJgAJRwwYzYMAJJzMOQAJJ8MdvfojAAn744W9QcA3AUjYN7JQDoCEQ8GIRiImAAlHDBjNgwAknMw5AAknwx29+iMACfvjhb1BwDcBSNg3slAOgIRDwYhGIiYACUcMGM2DwLK/HKEWbU8FiJgJbP94H/W8Jd6no8U8RHSXAgKQcAqSiCHoTWDlq0fp4l5n6x1kCqN7f+kuunIQHgWbwtSmakiQcKrSicHoSADL0clkBcvRyXBHr/4IQML+eGFvEPBNABL2jSyUAyDhUDCikYgJQMIRA0bzIAAJJ3MOQMLJcEev/ghAwv54YW8Q8E0AEvaNLJQDIOFQMKKRiAlAwhEDRvMgAAkncw5AwslwR6/+CEDC/nhhbxDwTeD90qN05FA938fhgGAEGjSqpIt74u7oYBRxdNQEIOGoCaN9EAABEAABEKiBACSMUwMEQAAEQAAEEiIACScEHt2CAAiAAAiAACSMcwAEQAAEQAAEEiLw/wEjjymPLG12yAAAAABJRU5ErkJggg==;clipPath=inset(0% 19.39% 0.33% 17.76%);" vertex="1" parent="1">
          <mxGeometry x="-790" y="267.28" width="303.3645484949833" height="589" as="geometry" />
        </mxCell>
      </root>
    </mxGraphModel>
  </diagram>
</mxfile>
